<?xml version="1.0" standalone="no"?>
<!DOCTYPE svg PUBLIC "-//W3C//DTD SVG 20010904//EN"
 "http://www.w3.org/TR/2001/REC-SVG-20010904/DTD/svg10.dtd">
<svg version="1.0" xmlns="http://www.w3.org/2000/svg"
 width="788.000000pt" height="1280.000000pt" viewBox="0 0 788.000000 1280.000000"
 preserveAspectRatio="xMidYMid meet">
<metadata>
Created by potrace 1.15, written by Peter Selinger 2001-2017
</metadata>
<g transform="translate(0.000000,1280.000000) scale(0.100000,-0.100000)"
fill="#f9be70" stroke="none">
<path d="M4010 12784 c-193 -19 -319 -41 -385 -64 -50 -19 -73 -21 -135 -16
-41 3 -91 1 -111 -4 -20 -6 -79 -14 -131 -19 -100 -10 -174 -37 -272 -99 -62
-39 -75 -40 -111 -2 -39 41 -78 46 -155 19 -112 -38 -218 -97 -337 -187 -35
-25 -90 -52 -160 -76 -206 -71 -224 -79 -276 -121 -40 -32 -64 -44 -102 -49
-68 -9 -105 -36 -231 -171 -94 -100 -120 -121 -186 -154 -89 -45 -146 -90
-319 -256 -69 -66 -147 -138 -174 -160 -38 -31 -56 -57 -89 -130 -23 -49 -52
-124 -64 -165 -12 -41 -34 -115 -48 -164 -21 -72 -34 -98 -69 -135 -60 -65
-68 -85 -70 -176 -2 -52 -12 -111 -30 -170 -31 -104 -45 -132 -75 -160 -44
-40 -78 -136 -100 -285 -10 -69 -10 -99 1 -160 7 -41 13 -97 12 -125 -4 -179
-13 -357 -20 -400 -6 -32 -4 -75 4 -120 36 -198 37 -238 14 -306 -18 -51 -24
-99 -31 -234 -7 -141 -13 -183 -34 -248 -41 -123 -31 -223 19 -203 27 10 16
-13 -14 -28 -64 -34 -236 -247 -281 -350 -31 -69 -53 -211 -47 -306 4 -71 79
-432 103 -494 4 -10 17 -21 30 -26 12 -5 28 -22 36 -37 11 -24 20 -28 56 -30
75 -2 75 0 20 234 -61 257 -67 334 -40 467 18 84 28 109 74 178 29 45 86 116
128 159 l75 77 60 -10 c236 -39 303 -69 428 -191 96 -94 97 -97 71 -189 -15
-53 -15 -60 0 -98 9 -22 16 -69 16 -103 0 -48 4 -68 18 -80 9 -9 36 -35 59
-57 37 -36 47 -40 92 -40 42 0 56 5 86 32 59 52 77 97 73 189 -2 44 -2 79 -2
79 1 0 34 -33 72 -73 39 -39 89 -83 112 -97 23 -14 67 -41 99 -61 65 -41 125
-48 145 -16 9 15 6 23 -19 43 -16 14 -54 39 -84 56 -71 41 -161 126 -206 194
-20 31 -42 57 -48 59 -7 2 -24 6 -39 9 -29 7 -36 28 -18 56 7 12 20 7 72 -29
74 -52 195 -150 221 -178 30 -34 116 -20 117 18 0 23 -256 229 -321 259 -24
11 -25 14 -23 103 3 145 18 258 42 312 36 85 52 157 49 230 -2 64 -4 70 -24
73 -13 2 -23 10 -23 20 0 24 -150 392 -176 432 -43 65 -61 82 -89 86 -17 1
-42 17 -61 38 -37 40 -46 43 -68 20 -23 -22 -20 -41 14 -84 33 -42 62 -103
120 -255 59 -154 80 -197 100 -202 16 -4 18 -14 15 -80 -2 -41 -9 -91 -16
-110 l-11 -35 -92 90 c-86 85 -214 177 -314 225 -50 25 -75 16 -80 -26 -3 -20
3 -29 27 -42 17 -8 31 -22 31 -30 0 -9 25 -27 57 -42 43 -20 92 -61 190 -157
l133 -129 0 -68 c0 -37 -5 -71 -10 -74 -6 -4 -52 35 -103 86 -158 159 -434
319 -482 279 -24 -20 -18 -49 14 -68 17 -9 32 -24 34 -34 3 -10 45 -36 102
-62 74 -35 113 -61 168 -113 184 -175 195 -183 226 -183 26 0 31 -4 31 -24 0
-13 2 -31 5 -38 3 -8 -12 -41 -35 -74 -22 -32 -40 -67 -40 -76 0 -10 -4 -18
-10 -18 -5 0 -10 4 -10 10 0 16 -205 195 -262 229 -29 17 -69 41 -88 54 -19
12 -77 36 -130 54 -53 19 -77 30 -55 27 123 -20 315 -118 432 -220 49 -44 73
-58 101 -60 78 -6 82 39 9 107 -58 55 -244 177 -352 231 -92 46 -225 88 -281
88 -24 0 -44 2 -44 4 0 2 7 23 16 47 12 30 19 98 25 214 6 142 12 183 33 248
23 68 25 84 15 119 -26 99 -35 231 -27 395 3 72 11 92 21 53 3 -12 27 -29 62
-45 47 -20 56 -28 50 -42 -5 -10 -10 -49 -13 -86 -6 -94 14 -143 92 -217 71
-69 122 -93 192 -88 47 3 49 4 49 32 0 26 -5 31 -42 43 -29 10 -52 28 -74 56
-29 40 -30 45 -24 107 15 132 13 156 -19 189 -16 17 -45 38 -65 47 -20 9 -48
27 -62 39 -15 12 -56 34 -93 50 l-66 28 2 106 c2 58 -2 140 -9 181 -12 85 4
214 39 307 30 80 40 83 75 16 24 -45 32 -75 35 -133 4 -61 12 -89 41 -147 41
-81 133 -179 207 -220 25 -14 61 -36 81 -49 19 -13 48 -24 63 -24 21 0 29 -6
34 -22 16 -65 198 -377 225 -387 6 -2 24 -18 39 -35 21 -23 38 -31 66 -32 40
-2 62 10 62 33 0 8 -29 61 -64 116 -72 115 -117 202 -147 282 -11 30 -27 56
-35 56 -8 1 -18 3 -24 4 -5 1 -18 3 -29 4 -11 0 -24 14 -31 31 -7 17 -20 30
-30 30 -18 0 -89 38 -152 80 -65 44 -117 153 -118 248 0 69 -8 88 -77 196 -35
54 -48 67 -64 63 -10 -3 -29 3 -41 13 l-22 17 27 89 c40 136 49 173 47 213 -3
70 0 81 46 132 56 63 61 74 119 272 57 196 95 278 149 320 22 18 96 86 165
152 172 165 229 211 308 247 59 26 87 50 208 174 132 136 142 144 179 144 47
0 91 20 145 66 30 26 80 49 195 89 177 61 182 64 256 120 72 55 202 129 265
151 l50 17 32 -31 c28 -29 38 -32 90 -32 48 0 68 6 118 35 158 93 253 116 495
119 72 1 116 7 180 27 248 78 795 82 1200 10 98 -18 128 -30 136 -54 4 -11 33
-47 64 -78 78 -77 111 -82 267 -44 111 28 115 28 161 12 26 -9 65 -19 87 -23
22 -4 56 -15 75 -24 19 -10 81 -36 138 -59 160 -64 201 -88 279 -162 40 -38
96 -82 125 -99 29 -16 81 -56 115 -88 38 -36 77 -63 101 -70 48 -15 180 -150
211 -216 84 -182 85 -184 72 -227 -16 -53 -8 -74 54 -140 29 -30 64 -78 78
-105 27 -53 136 -162 188 -189 31 -16 49 -49 49 -89 0 -13 11 -40 25 -60 31
-46 31 -51 0 -88 -30 -35 -50 -98 -42 -130 4 -14 64 -83 133 -154 70 -71 133
-144 141 -162 9 -22 11 -49 7 -82 -6 -44 -3 -56 34 -122 52 -96 65 -142 51
-192 -14 -50 -8 -71 41 -136 40 -52 41 -58 38 -115 -3 -38 -14 -81 -31 -118
-32 -66 -31 -76 20 -158 48 -79 51 -111 18 -209 -24 -72 -26 -91 -20 -144 11
-87 10 -160 -6 -338 l-15 -156 -58 -87 c-39 -58 -64 -109 -77 -153 -24 -92
-87 -278 -110 -330 -10 -23 -19 -50 -19 -58 0 -12 -6 -15 -22 -10 -13 3 -29 6
-35 6 -7 0 -13 8 -13 19 0 32 -24 43 -82 35 l-53 -7 29 32 c16 17 47 43 68 57
66 46 47 91 -37 90 -38 -1 -40 1 -40 29 0 29 -2 30 -52 33 -48 3 -53 5 -53 27
0 33 -31 49 -64 34 -49 -23 -41 -79 10 -79 37 0 31 -39 -11 -80 -36 -35 -44
-67 -23 -88 17 -17 38 -15 61 5 18 17 18 17 1 -14 -24 -41 -8 -63 46 -63 31 0
37 -3 34 -17 -6 -27 10 -45 40 -45 19 0 26 -5 22 -14 -3 -7 7 -27 21 -45 19
-23 32 -30 50 -26 19 4 22 1 17 -15 -8 -25 13 -48 43 -48 21 0 24 -4 19 -23
-3 -12 -10 -46 -16 -75 l-12 -52 -57 0 -58 0 -51 68 c-107 144 -254 262 -377
301 -47 16 -85 32 -85 36 2 11 -22 25 -43 25 -10 0 -30 14 -44 30 -14 17 -33
30 -42 29 -35 -3 -49 2 -54 20 -7 30 -52 55 -75 42 -12 -6 -22 -7 -29 0 -16
16 -125 40 -154 34 -22 -5 -28 -2 -33 19 -11 44 -103 50 -121 9 -10 -25 -31
-32 -22 -9 3 8 0 22 -7 32 -11 14 -23 16 -74 11 -79 -8 -122 0 -122 23 0 30
-26 43 -75 38 -53 -6 -75 -22 -75 -54 0 -24 33 -50 50 -39 6 3 10 -3 10 -14 0
-31 28 -51 73 -52 57 -1 81 -11 85 -32 3 -16 -2 -18 -40 -13 -66 9 -244 23
-558 45 -716 51 -1512 84 -2352 97 -237 4 -415 11 -412 16 3 5 15 6 26 3 11
-4 26 -1 36 8 23 20 114 27 127 10 7 -9 46 -16 112 -20 83 -5 111 -3 147 11
48 18 66 47 46 71 -10 12 -9 15 4 15 9 0 16 -8 16 -18 0 -29 21 -42 66 -42 24
0 45 -4 48 -9 3 -4 24 -8 46 -8 43 0 65 17 65 51 0 14 7 22 23 24 16 3 22 -2
22 -16 0 -32 24 -43 87 -40 54 3 58 5 61 29 4 33 -14 47 -62 51 -54 3 -56 18
-2 18 43 0 96 -16 96 -30 0 -21 42 -48 77 -48 78 0 86 49 18 115 -25 24 -52
43 -61 43 -9 0 -34 15 -55 34 -22 19 -55 36 -72 39 -48 7 -135 -4 -148 -19
-20 -24 -2 -63 34 -72 l32 -9 -35 -6 c-51 -9 -101 -4 -96 9 7 18 -23 54 -44
54 -10 0 -31 -15 -46 -32 -22 -25 -36 -32 -57 -30 -16 2 -34 -1 -41 -7 -21
-18 -76 -1 -87 26 -10 28 -16 30 -96 41 -104 14 -163 -17 -163 -85 0 -26 -4
-33 -19 -33 -11 0 -22 9 -26 19 -11 35 -133 68 -150 41 -3 -5 -16 -10 -28 -11
-33 -1 -101 -41 -105 -62 -5 -25 16 -47 45 -47 13 0 21 -4 18 -10 -3 -5 -1
-19 5 -30 9 -16 21 -20 60 -20 28 0 50 -3 50 -7 0 -5 -40 -7 -89 -5 l-89 3
-119 -118 c-377 -375 -457 -756 -247 -1176 70 -140 103 -185 225 -305 187
-183 336 -282 529 -350 274 -96 601 -76 830 50 30 17 103 56 161 88 151 81
221 132 325 233 156 150 266 325 363 577 60 155 74 220 74 340 1 157 -41 291
-125 401 -58 75 -61 71 43 65 98 -6 311 -18 659 -36 113 -6 238 -13 278 -16
l74 -6 -51 -27 c-134 -70 -258 -188 -356 -337 l-55 -84 0 -120 0 -120 -40 3
c-29 1 -39 6 -35 15 9 23 -14 52 -41 52 -21 0 -30 -10 -56 -67 -58 -124 -47
-297 30 -448 20 -38 50 -110 66 -160 24 -68 37 -93 55 -102 14 -6 31 -23 38
-38 13 -24 19 -26 66 -23 51 3 52 4 51 33 -3 52 -39 157 -83 240 -62 119 -86
258 -59 350 l11 40 22 -110 c46 -227 128 -406 281 -610 89 -119 146 -171 296
-266 259 -164 360 -200 563 -200 200 0 486 63 585 128 148 98 326 251 385 332
17 22 33 41 36 41 13 0 -24 -195 -66 -350 -8 -30 -15 -84 -15 -121 0 -94 -65
-408 -101 -491 -33 -76 -29 -108 16 -108 20 0 25 -5 25 -25 0 -13 8 -28 18
-33 17 -9 88 -9 96 -1 12 13 60 119 68 149 32 131 71 352 78 445 4 61 13 124
20 140 18 46 48 199 65 331 9 66 24 146 34 179 10 33 29 102 41 153 25 106 22
116 -40 126 l-39 6 14 39 c12 35 11 52 -11 167 -13 71 -24 132 -24 137 0 4 13
7 29 7 57 0 125 88 120 155 -2 18 2 39 9 47 7 9 21 48 32 89 10 41 24 90 30
109 5 19 9 67 8 105 -1 39 3 79 9 90 14 26 108 306 123 365 6 25 38 86 71 136
65 99 79 148 79 276 0 37 5 99 12 137 9 55 9 89 -1 163 -13 91 -12 94 13 162
35 94 34 155 -4 226 -57 105 -55 98 -36 130 9 17 23 59 30 94 19 88 7 145 -44
213 -39 51 -40 54 -29 92 15 52 0 113 -49 201 -31 56 -36 74 -37 135 -2 96
-20 127 -164 273 -67 68 -121 126 -121 130 0 4 16 32 35 62 41 64 44 103 12
152 -13 19 -27 52 -30 73 -10 58 -49 127 -86 150 -102 63 -128 85 -158 136
-18 30 -55 80 -83 111 -43 49 -49 61 -40 77 19 37 10 81 -41 196 -39 87 -67
132 -114 187 -86 100 -201 208 -220 208 -9 0 -42 22 -73 49 -31 27 -91 70
-132 96 -41 26 -104 75 -140 110 -36 34 -81 70 -100 80 -19 10 -57 33 -85 51
-27 18 -111 58 -185 89 -74 32 -157 68 -184 81 -28 13 -64 24 -80 24 -17 0
-55 9 -84 20 -65 25 -96 25 -196 1 l-79 -19 -33 33 c-18 18 -43 37 -56 41 -12
4 -39 19 -58 34 -48 37 -99 55 -211 75 -294 51 -693 72 -919 49z m-1570 -428
c0 -2 -8 -10 -17 -17 -16 -13 -17 -12 -4 4 13 16 21 21 21 13z m-440 -199 c0
-2 -10 -12 -22 -23 l-23 -19 19 23 c18 21 26 27 26 19z m-210 -100 c0 -1 -60
-61 -132 -132 l-133 -130 130 133 c120 123 135 137 135 129z m-390 -321 c0 -2
-8 -10 -17 -17 -16 -13 -17 -12 -4 4 13 16 21 21 21 13z m-50 -39 c0 -2 -10
-12 -22 -23 l-23 -19 19 23 c18 21 26 27 26 19z m-50 -40 c0 -2 -10 -12 -22
-23 l-23 -19 19 23 c18 21 26 27 26 19z m-50 -40 c0 -1 -26 -27 -57 -57 l-58
-55 55 58 c50 53 60 62 60 54z m-110 -120 c0 -2 -19 -21 -42 -42 l-43 -40 40
43 c36 39 45 47 45 39z m-130 -111 c0 -3 -15 -14 -32 -26 l-33 -22 30 26 c31
27 35 29 35 22z m-250 -569 c0 -2 -17 -19 -37 -38 l-38 -34 34 38 c33 34 41
42 41 34z m-180 -510 c0 -2 -10 -12 -22 -23 l-23 -19 19 23 c18 21 26 27 26
19z m-75 -2077 c3 -5 1 -10 -4 -10 -6 0 -11 5 -11 10 0 6 2 10 4 10 3 0 8 -4
11 -10z m6585 -93 c0 -2 -10 -12 -22 -23 l-23 -19 19 23 c18 21 26 27 26 19z
m-6740 -10 c0 -2 -12 -14 -27 -28 l-28 -24 24 28 c23 25 31 32 31 24z m5770
-17 c12 -8 11 -10 -7 -10 -13 0 -23 5 -23 10 0 13 11 13 30 0z m110 -20 c0
-12 -47 -12 -75 0 -15 6 -8 9 28 9 26 1 47 -3 47 -9z m810 6 c0 -2 -8 -10 -17
-17 -16 -13 -17 -12 -4 4 13 16 21 21 21 13z m-6740 -29 c0 -2 -15 -16 -32
-33 l-33 -29 29 33 c28 30 36 37 36 29z m-60 -71 c0 -2 -8 -10 -17 -17 -16
-13 -17 -12 -4 4 13 16 21 21 21 13z m1080 -119 c0 -2 -10 -12 -22 -23 l-23
-19 19 23 c18 21 26 27 26 19z"/>
<path d="M4128 12498 c-8 -7 -39 -65 -67 -128 -43 -95 -54 -131 -62 -205 -17
-147 -18 -150 -51 -200 -17 -26 -57 -68 -89 -94 -69 -55 -79 -76 -51 -104 20
-19 22 -19 47 -3 l26 17 -15 -23 c-14 -21 -14 -26 -1 -45 12 -18 24 -21 60
-19 38 2 53 10 111 62 36 32 81 84 100 114 30 49 35 69 47 176 13 110 19 132
66 233 28 62 51 118 51 125 0 17 -24 38 -42 35 -7 -1 -25 -1 -40 0 -23 1 -28
6 -28 26 0 14 -8 29 -19 35 -24 13 -24 13 -43 -2z m-118 -602 c0 -2 -8 -10
-17 -17 -16 -13 -17 -12 -4 4 13 16 21 21 21 13z m-30 -40 c0 -2 -8 -10 -17
-17 -16 -13 -17 -12 -4 4 13 16 21 21 21 13z m-50 -40 c0 -2 -8 -10 -17 -17
-16 -13 -17 -12 -4 4 13 16 21 21 21 13z"/>
<path d="M4567 12470 c-54 -59 -71 -128 -62 -256 7 -108 -3 -179 -32 -238 -27
-53 -100 -121 -163 -151 -44 -21 -62 -36 -67 -54 -7 -29 21 -54 50 -45 15 5
18 2 13 -14 -9 -29 17 -50 61 -50 99 -1 257 126 304 245 21 51 23 76 25 218 1
170 7 196 48 234 48 45 28 81 -47 84 -37 2 -43 5 -39 19 6 23 -15 48 -38 48
-10 0 -34 -18 -53 -40z m-37 -574 c0 -2 -8 -10 -17 -17 -16 -13 -17 -12 -4 4
13 16 21 21 21 13z m-30 -39 c0 -2 -15 -16 -32 -33 l-33 -29 29 33 c28 30 36
37 36 29z"/>
<path d="M3172 12443 c-31 -28 -67 -253 -67 -423 0 -116 3 -143 23 -193 14
-38 22 -79 22 -121 0 -67 15 -94 45 -82 11 4 15 -1 15 -18 0 -32 18 -44 67
-44 32 -1 46 4 53 18 18 34 11 132 -16 215 -24 73 -26 90 -20 190 3 61 15 160
26 220 26 144 26 172 -1 180 -12 4 -36 7 -54 7 -25 0 -32 4 -28 14 5 14 -22
54 -37 54 -4 0 -17 -8 -28 -17z"/>
<path d="M3628 12348 c-78 -84 -83 -102 -83 -288 l-1 -165 -46 -90 c-67 -133
-71 -195 -13 -195 18 0 24 -6 27 -27 3 -24 8 -29 43 -33 52 -8 72 3 80 41 4
18 28 75 54 128 l46 96 0 160 c0 176 0 177 67 257 48 58 42 82 -24 91 -38 5
-47 2 -78 -26 l-35 -32 33 35 c36 40 39 52 16 74 -24 25 -43 19 -86 -26z"/>
<path d="M5013 12328 c-32 -36 -53 -83 -99 -226 -51 -157 -74 -197 -176 -319
-81 -95 -92 -125 -58 -143 18 -10 29 -3 83 47 l62 58 -53 -57 c-71 -78 -70
-108 6 -114 49 -4 61 4 135 93 114 138 145 197 206 398 20 66 41 113 61 137
39 48 30 72 -31 82 -35 6 -46 3 -67 -16 l-25 -23 22 31 c19 26 21 35 12 53
-15 28 -52 27 -78 -1z m-153 -541 c0 -2 -10 -12 -22 -23 l-23 -19 19 23 c18
21 26 27 26 19z"/>
<path d="M5299 12143 c-51 -46 -63 -71 -93 -181 -13 -49 -29 -99 -36 -111 -6
-13 -54 -68 -105 -123 -99 -107 -132 -155 -122 -182 9 -23 36 -31 58 -18 17
11 18 10 7 -13 -16 -36 4 -55 57 -55 39 0 46 4 81 48 21 26 74 84 116 129 91
97 100 113 128 223 25 99 38 125 79 164 48 46 39 77 -25 89 -20 4 -39 0 -54
-10 -22 -16 -22 -16 -6 9 14 22 14 26 0 46 -21 31 -38 28 -85 -15z m49 -73
c-7 -10 -14 -17 -17 -15 -4 4 18 35 25 35 2 0 -1 -9 -8 -20z m-118 -293 c0 -2
-17 -19 -37 -38 l-38 -34 34 38 c33 34 41 42 41 34z m-70 -80 c0 -1 -24 -25
-52 -52 l-53 -50 50 53 c46 48 55 57 55 49z m-100 -111 c0 -2 -8 -10 -17 -17
-16 -13 -17 -12 -4 4 13 16 21 21 21 13z"/>
<path d="M2648 12113 c-26 -30 -48 -81 -54 -126 -8 -57 16 -112 84 -193 30
-36 52 -72 52 -85 0 -13 -14 -59 -32 -103 -35 -87 -31 -111 16 -111 18 1 25
-3 21 -13 -3 -7 0 -22 6 -33 8 -17 19 -20 62 -17 l51 3 33 84 c34 88 41 147
21 184 -6 12 -29 42 -51 67 -40 46 -77 109 -77 132 0 7 12 37 25 67 25 53 25
55 8 73 -11 11 -35 19 -60 20 -30 1 -40 5 -36 15 6 15 -24 53 -42 53 -7 0 -19
-8 -27 -17z"/>
<path d="M5696 12069 c-52 -45 -74 -87 -91 -175 -36 -182 -83 -245 -246 -329
-75 -39 -89 -50 -89 -70 0 -27 30 -48 54 -39 11 4 13 0 9 -14 -7 -28 21 -50
64 -50 50 0 197 75 263 135 62 56 104 140 130 262 23 107 27 116 74 158 29 27
34 37 27 55 -11 31 -76 43 -111 21 -25 -16 -25 -16 -7 4 21 24 22 37 1 57 -22
23 -39 20 -78 -15z m44 -78 c-5 -11 -15 -23 -21 -27 -6 -3 -3 5 6 20 20 30 30
35 15 7z m-150 -375 c0 -2 -8 -10 -17 -17 -16 -13 -17 -12 -4 4 13 16 21 21
21 13z m-40 -30 c0 -2 -8 -10 -17 -17 -16 -13 -17 -12 -4 4 13 16 21 21 21 13z"/>
<path d="M2162 11938 c-11 -13 -37 -50 -56 -82 -30 -51 -36 -69 -36 -119 0
-70 33 -145 94 -214 39 -44 40 -48 36 -107 -9 -147 -8 -150 28 -162 18 -5 30
-13 26 -16 -3 -4 -1 -16 6 -27 9 -17 20 -21 61 -21 31 0 51 5 54 13 3 6 9 51
14 99 12 106 3 143 -50 204 -54 63 -79 115 -79 168 0 36 8 54 45 105 61 83 58
103 -15 114 -28 4 -41 0 -64 -22 l-30 -26 22 29 c27 36 28 62 3 76 -28 14 -35
13 -59 -12z"/>
<path d="M6212 11845 c-22 -25 -59 -83 -83 -128 -96 -186 -179 -282 -329 -380
-85 -55 -95 -68 -80 -98 9 -15 19 -20 39 -17 25 4 27 1 23 -24 -5 -36 21 -47
97 -39 22 2 164 104 224 161 72 67 153 181 210 295 19 39 51 90 71 114 20 24
36 49 36 56 0 34 -80 54 -119 29 -26 -17 -26 -17 -8 3 20 23 22 44 5 61 -22
22 -46 13 -86 -33z m68 -59 c0 -2 -8 -10 -17 -17 -16 -13 -17 -12 -4 4 13 16
21 21 21 13z m-190 -309 c0 -2 -12 -14 -27 -28 l-28 -24 24 28 c23 25 31 32
31 24z m-60 -60 c0 -1 -24 -25 -52 -52 l-53 -50 50 53 c46 48 55 57 55 49z"/>
<path d="M1700 11650 c-23 -23 -24 -42 -10 -195 14 -146 32 -209 91 -327 36
-71 54 -98 68 -98 11 0 23 -12 31 -30 11 -27 17 -30 60 -30 78 0 82 15 27 120
-60 116 -77 184 -86 352 -4 75 -10 140 -14 144 -6 6 -42 14 -79 17 -10 1 -18
9 -18 18 0 19 -25 49 -41 49 -5 0 -18 -9 -29 -20z"/>
<path d="M6314 11461 c-73 -76 -152 -147 -188 -169 -34 -22 -67 -47 -75 -55
-28 -35 21 -84 56 -55 15 11 15 11 6 -6 -13 -24 -6 -54 16 -60 78 -21 181 44
356 227 148 153 155 173 62 184 l-41 4 -129 -133 -129 -133 124 133 c94 102
123 140 123 160 0 22 -5 28 -28 30 -24 3 -44 -14 -153 -127z"/>
<path d="M4127 11495 c-10 -9 -13 -28 -10 -57 2 -24 -2 -75 -10 -115 -15 -80
-9 -103 28 -103 20 0 25 -5 25 -24 0 -30 9 -36 59 -41 28 -3 43 1 54 13 16 19
37 125 37 191 0 61 -12 78 -63 85 -36 6 -45 12 -54 36 -12 33 -42 40 -66 15z"/>
<path d="M4418 11489 c-10 -5 -20 -26 -24 -47 -4 -20 -15 -61 -25 -90 -21 -62
-17 -81 22 -89 18 -3 29 -12 29 -22 0 -24 20 -41 50 -41 17 0 29 -8 35 -22 7
-16 18 -23 38 -23 22 1 27 -3 24 -17 -9 -33 15 -50 68 -46 l48 3 21 62 c19 57
46 104 33 58 -3 -11 -9 -50 -12 -87 -7 -61 -5 -67 14 -78 12 -6 26 -8 31 -5 6
3 10 -5 10 -19 0 -14 8 -29 18 -34 26 -14 89 -13 100 1 16 19 34 174 26 233
-7 62 -14 69 -71 79 -31 5 -43 12 -43 24 0 40 -46 54 -77 23 -10 -10 -25 -17
-33 -17 -8 1 -27 3 -42 3 -20 2 -25 6 -21 20 2 10 -5 26 -16 36 -12 11 -21 16
-21 11 0 -4 -7 -2 -15 5 -15 12 -52 21 -87 21 -11 0 -18 8 -18 19 0 18 -25 50
-38 50 -4 0 -15 -5 -24 -11z"/>
<path d="M3888 11423 c-2 -5 -4 -69 -3 -143 l0 -135 28 -3 c21 -3 27 -9 27
-27 0 -30 23 -42 72 -40 46 2 47 3 59 52 20 87 5 231 -24 235 -7 0 -16 2 -22
3 -5 2 -20 3 -33 4 -16 1 -26 10 -33 31 -9 24 -17 30 -39 30 -16 0 -30 -3 -32
-7z"/>
<path d="M3424 11325 c-8 -13 -13 -28 -11 -32 3 -5 11 -89 17 -188 7 -99 17
-186 22 -192 6 -7 18 -13 28 -13 11 0 22 -12 29 -30 9 -28 13 -30 61 -30 38 0
52 4 57 17 11 28 -17 386 -31 401 -13 14 -35 20 -73 21 -16 1 -23 7 -23 20 0
18 -34 51 -52 51 -4 0 -15 -11 -24 -25z"/>
<path d="M5081 11317 c-6 -8 -15 -38 -21 -68 -5 -30 -19 -93 -31 -141 -19 -74
-20 -89 -9 -103 8 -10 23 -15 37 -12 19 4 22 1 17 -15 -9 -31 14 -48 67 -48
40 0 49 4 54 21 l7 21 15 -22 c11 -15 23 -20 39 -17 20 4 23 1 18 -15 -3 -10
0 -25 6 -33 16 -20 94 -20 110 0 19 23 50 153 50 211 0 59 -8 69 -67 79 -32 5
-43 11 -43 25 0 23 -24 42 -48 38 -10 -2 -26 3 -34 10 -9 7 -34 13 -57 15 -34
2 -41 6 -41 23 0 39 -45 59 -69 31z m166 -209 c-3 -8 -6 -5 -6 6 -1 11 2 17 5
13 3 -3 4 -12 1 -19z"/>
<path d="M2571 11281 c-7 -12 -7 -64 -1 -152 6 -74 13 -179 16 -234 8 -114 15
-135 49 -135 18 0 24 -6 27 -27 3 -24 8 -29 43 -33 66 -9 75 0 75 79 l0 68 30
-5 c23 -3 30 -9 30 -28 0 -27 13 -37 54 -40 51 -4 61 4 91 66 26 55 45 76 45
50 0 -5 11 -10 25 -10 18 0 25 -5 25 -19 0 -38 66 -61 113 -39 24 12 22 70 -8
198 -14 58 -25 119 -25 135 -1 51 -15 62 -92 68 -9 1 -19 13 -22 28 -6 31 -40
47 -61 29 -21 -17 -19 -82 6 -190 12 -50 19 -94 16 -97 -3 -3 -23 -6 -44 -6
-37 -2 -39 -1 -35 25 3 22 -1 30 -19 37 -35 13 -49 1 -95 -83 l-41 -77 -6 83
c-4 46 -7 110 -8 143 -2 96 -8 109 -60 118 -37 7 -47 14 -56 38 -13 34 -56 41
-72 10z"/>
<path d="M3210 11281 c-5 -11 -10 -65 -10 -120 0 -90 2 -101 21 -115 12 -8 27
-12 33 -10 7 3 12 -5 13 -18 1 -12 9 -28 18 -34 18 -13 83 -10 97 4 5 5 7 60
6 123 l-3 114 -53 10 c-30 5 -51 13 -47 17 4 3 2 16 -5 27 -14 27 -56 28 -70
2z"/>
<path d="M3663 11289 c-8 -8 -10 -33 -6 -74 3 -34 0 -108 -7 -164 -13 -109 -8
-131 31 -131 12 0 19 -7 19 -19 0 -10 6 -24 14 -30 14 -12 92 -18 102 -8 23
23 44 293 26 338 -8 21 -19 28 -54 33 -37 6 -46 11 -55 36 -12 32 -48 41 -70
19z"/>
<path d="M1295 11274 c-11 -12 -14 -26 -9 -52 18 -110 72 -244 129 -322 33
-45 35 -53 35 -125 0 -83 19 -140 49 -150 10 -3 27 -18 38 -34 18 -23 29 -28
62 -28 53 0 68 17 53 60 -6 18 -10 64 -9 104 1 65 -2 76 -31 120 -58 88 -112
207 -128 283 -8 41 -21 78 -27 82 -11 7 -44 12 -74 11 -7 -1 -13 7 -13 17 0
22 -26 50 -45 50 -7 0 -21 -7 -30 -16z"/>
<path d="M5518 11158 c-9 -7 -18 -35 -22 -61 -3 -27 -20 -78 -37 -115 -35 -73
-32 -95 15 -100 21 -3 26 -8 21 -21 -3 -10 1 -24 10 -31 19 -16 92 -23 100
-10 3 6 16 10 27 10 11 0 48 24 82 53 34 29 78 66 99 81 57 44 48 78 -25 89
-28 4 -44 1 -65 -16 l-28 -21 23 25 c12 14 22 33 22 42 0 24 -45 44 -63 29 -8
-7 -32 -11 -55 -9 -35 2 -42 6 -42 23 0 38 -32 55 -62 32z"/>
<path d="M6656 11161 c-8 -13 -104 -65 -146 -80 -19 -7 -79 -18 -132 -26 -53
-7 -113 -21 -133 -30 -45 -22 -115 -101 -115 -130 0 -29 24 -49 50 -42 17 4
20 2 15 -14 -10 -32 12 -49 64 -49 41 1 48 4 66 33 28 44 78 75 133 82 161 19
274 59 352 123 28 24 31 31 22 49 -12 21 -83 40 -104 27 -6 -4 -8 1 -3 15 4
13 1 28 -5 36 -14 17 -56 20 -64 6z"/>
<path d="M2206 11054 c-9 -8 -16 -20 -16 -25 0 -9 85 -200 133 -299 12 -25 32
-49 44 -55 12 -5 26 -20 32 -32 6 -13 18 -26 26 -29 12 -5 8 -14 -18 -44 -25
-26 -36 -51 -42 -86 -4 -31 -18 -62 -37 -87 -17 -21 -44 -72 -60 -114 -16 -42
-41 -94 -55 -115 -13 -22 -27 -56 -30 -76 -4 -20 -26 -62 -53 -97 -31 -41 -49
-76 -54 -104 -7 -46 5 -105 28 -136 11 -15 13 -36 9 -80 -4 -44 0 -84 16 -145
34 -134 35 -130 -76 -238 -110 -105 -142 -125 -232 -143 -53 -10 -71 -20 -117
-61 -42 -39 -63 -51 -96 -55 -24 -3 -55 -12 -69 -19 -30 -15 -95 -85 -111
-119 -15 -33 6 -58 43 -53 23 4 26 2 19 -12 -15 -28 11 -53 56 -55 35 -1 44 4
94 57 49 51 60 58 93 58 48 0 71 12 123 62 33 32 56 43 118 58 42 11 85 24 94
29 35 19 199 168 232 209 43 55 51 125 24 203 -13 37 -18 84 -19 149 0 77 -4
102 -19 125 -28 43 -24 97 10 145 16 22 39 54 52 71 12 18 22 43 22 57 0 14
13 46 29 72 16 25 39 75 51 109 13 34 36 79 51 100 42 59 61 100 54 122 -5 14
6 33 39 70 67 74 59 109 -26 112 -42 2 -43 3 -40 32 2 21 -14 68 -52 150 -110
235 -106 229 -153 238 -24 5 -43 14 -43 21 0 15 -32 46 -48 46 -6 0 -18 -7
-26 -16z m304 -497 c0 -2 -12 -14 -27 -28 l-28 -24 24 28 c23 25 31 32 31 24z
m-100 -201 c0 -2 -8 -10 -17 -17 -16 -13 -17 -12 -4 4 13 16 21 21 21 13z
m-179 -374 c-5 -10 -18 -25 -27 -33 -11 -9 -9 -2 6 19 26 35 36 42 21 14z
m-41 -685 c0 -2 -17 -19 -37 -38 l-38 -34 34 38 c33 34 41 42 41 34z m-90 -80
c0 -2 -19 -21 -42 -42 l-43 -40 40 43 c36 39 45 47 45 39z m-310 -170 c0 -2
-15 -16 -32 -33 l-33 -29 29 33 c28 30 36 37 36 29z m-230 -121 c0 -2 -8 -10
-17 -17 -16 -13 -17 -12 -4 4 13 16 21 21 21 13z m-30 -40 c0 -2 -8 -10 -17
-17 -16 -13 -17 -12 -4 4 13 16 21 21 21 13z"/>
<path d="M5850 10953 c-121 -84 -124 -89 -90 -123 15 -15 25 -18 38 -11 16 9
18 6 14 -19 -3 -21 1 -31 17 -40 12 -6 26 -8 32 -5 5 4 21 -1 36 -10 14 -9 35
-15 47 -13 19 4 21 1 18 -23 -8 -53 67 -62 144 -18 65 37 74 48 63 77 -8 21
-35 28 -91 24 -11 -1 -15 3 -11 13 3 9 0 22 -7 30 -7 9 -11 17 -9 18 2 2 16
11 32 20 53 34 28 77 -46 80 -37 2 -43 5 -39 19 5 22 -15 48 -37 48 -9 -1 -59
-30 -111 -67z"/>
<path d="M6861 10889 c-46 -21 -116 -48 -155 -60 -247 -72 -295 -89 -302 -111
-8 -25 27 -61 51 -51 11 4 15 -2 15 -20 0 -59 36 -58 248 5 90 26 167 48 173
48 9 0 165 69 199 89 8 4 15 21 15 37 0 25 -5 29 -40 36 -21 5 -45 6 -53 3
-10 -4 -12 0 -8 11 9 24 -12 54 -37 53 -12 0 -60 -18 -106 -40z"/>
<path d="M989 10879 c-9 -18 -7 -27 13 -53 24 -33 25 -40 17 -236 -4 -116 9
-148 97 -241 58 -61 76 -87 85 -124 10 -38 18 -50 41 -59 15 -6 28 -18 28 -27
0 -25 21 -37 67 -37 32 -1 46 4 53 18 23 44 -20 133 -109 223 l-66 68 0 167
c0 170 -4 189 -43 235 -8 9 -26 17 -39 17 -16 0 -36 13 -56 35 -35 40 -71 46
-88 14z"/>
<path d="M1996 10824 c-9 -8 -16 -21 -16 -29 0 -21 82 -123 180 -224 85 -88
95 -95 133 -97 44 -2 67 9 67 33 0 8 -33 51 -73 96 -39 45 -87 101 -105 125
-25 31 -41 42 -62 42 -20 0 -35 10 -54 35 -30 38 -46 43 -70 19z"/>
<path d="M1772 10688 c-23 -23 -11 -44 81 -133 95 -92 133 -151 144 -224 7
-44 19 -61 44 -61 12 0 19 -7 19 -19 0 -27 22 -41 67 -43 58 -2 66 7 61 63 -8
81 -62 174 -153 265 -44 45 -92 85 -105 89 -14 4 -45 23 -69 41 -46 36 -69 42
-89 22z"/>
<path d="M6022 10604 c-29 -25 -57 -55 -63 -65 -23 -45 20 -81 61 -52 22 16
22 16 5 -11 -16 -25 -17 -28 -1 -45 11 -12 30 -18 56 -18 32 0 45 7 77 39 l38
39 5 -28 c5 -25 10 -28 51 -31 38 -2 56 3 110 36 69 42 86 72 50 91 -11 6 -24
11 -28 10 -4 -1 -22 -1 -39 0 -27 1 -31 4 -27 25 4 17 -1 27 -16 35 -17 9 -30
6 -73 -16 -29 -15 -59 -26 -66 -24 -8 1 -19 -3 -26 -8 -10 -9 -12 -6 -8 14 5
29 -13 55 -37 55 -9 0 -40 -21 -69 -46z m88 -38 c0 -2 -8 -10 -17 -17 -16 -13
-17 -12 -4 4 13 16 21 21 21 13z m-40 -30 c0 -2 -8 -10 -17 -17 -16 -13 -17
-12 -4 4 13 16 21 21 21 13z"/>
<path d="M1652 10488 c-19 -19 -16 -26 42 -112 62 -94 105 -175 156 -301 25
-60 44 -94 60 -101 12 -7 27 -22 34 -35 9 -19 21 -25 57 -27 89 -6 86 32 -22
253 -77 161 -151 265 -185 265 -17 0 -38 12 -58 35 -33 36 -63 44 -84 23z"/>
<path d="M6631 10492 c-47 -14 -44 -82 3 -82 18 0 25 -7 30 -30 5 -30 6 -30
77 -30 65 0 76 -3 142 -42 61 -37 80 -43 141 -47 58 -3 72 0 82 14 20 27 1 52
-46 60 -31 5 -44 14 -55 35 -11 22 -24 30 -57 35 -23 4 -72 26 -107 48 -55 35
-74 42 -125 44 -34 1 -72 -1 -85 -5z"/>
<path d="M6366 10369 c-8 -12 -12 -28 -9 -35 7 -19 41 -37 53 -29 6 3 10 -4
10 -17 0 -37 19 -48 81 -48 71 0 109 13 109 39 0 26 -17 37 -67 46 -31 5 -43
12 -43 24 0 29 -22 41 -71 41 -37 0 -51 -5 -63 -21z"/>
<path d="M6582 10229 c-135 -26 -134 -26 -130 -62 2 -26 8 -33 29 -35 20 -2
28 -10 32 -31 5 -25 11 -29 49 -33 47 -4 236 28 256 44 14 12 15 27 3 47 -9
13 -27 18 -78 20 -16 1 -23 7 -23 20 0 19 -25 52 -38 50 -4 -1 -49 -9 -100
-20z"/>
<path d="M1538 10189 c-35 -20 -19 -49 85 -152 103 -101 137 -154 196 -300 6
-15 20 -31 31 -35 12 -4 27 -19 33 -32 10 -21 21 -25 59 -27 68 -3 76 12 48
90 -39 108 -98 197 -191 290 -49 48 -104 94 -121 102 -18 7 -50 27 -72 44 -43
34 -44 35 -68 20z"/>
<path d="M6940 10092 c-22 -4 -39 -15 -44 -28 -8 -18 -22 -23 -70 -28 -104
-11 -176 -28 -199 -46 -19 -15 -20 -21 -9 -44 8 -17 19 -26 36 -26 18 0 25 -7
30 -31 6 -31 6 -31 63 -27 32 3 94 10 138 17 44 7 95 15 112 17 25 4 34 11 39
31 l7 26 168 -7 c163 -6 168 -6 174 14 9 29 -8 46 -59 59 -30 7 -45 17 -49 31
-3 11 -18 25 -34 31 -32 13 -251 21 -303 11z m20 -97 c0 -8 -7 -15 -15 -15 -8
0 -15 7 -15 15 0 8 7 15 15 15 8 0 15 -7 15 -15z"/>
<path d="M1417 10063 c-19 -18 -1 -53 54 -108 66 -65 104 -124 164 -255 58
-124 86 -172 104 -177 9 -2 24 -17 33 -34 15 -26 22 -29 67 -29 40 0 51 4 56
19 7 24 -117 286 -182 384 -42 63 -131 147 -155 147 -6 0 -27 14 -48 30 -35
28 -78 39 -93 23z"/>
<path d="M4000 9859 c-41 -5 -109 -16 -150 -24 -68 -13 -290 -46 -511 -74 -48
-6 -149 -31 -225 -55 -77 -24 -175 -52 -218 -62 -44 -10 -116 -37 -160 -59
-68 -34 -81 -44 -84 -67 -3 -29 25 -52 52 -42 11 4 13 0 9 -15 -16 -60 56 -64
172 -10 44 20 114 44 155 53 41 9 138 37 215 61 81 25 180 49 235 55 159 19
367 50 525 77 198 34 247 30 388 -31 122 -53 266 -96 417 -126 57 -12 107 -23
111 -25 3 -3 56 -9 116 -15 61 -5 177 -23 259 -39 177 -35 377 -60 569 -71
150 -8 245 -31 303 -72 17 -13 78 -64 134 -114 87 -77 110 -92 146 -96 44 -6
72 8 72 37 0 8 -39 47 -87 88 -49 41 -99 87 -113 102 -14 15 -55 45 -92 67
-36 23 -80 49 -96 60 -65 41 -190 69 -357 78 -199 12 -362 31 -528 65 -70 14
-172 30 -225 35 -122 13 -274 42 -421 82 -112 30 -142 40 -231 80 -133 61
-233 76 -380 57z"/>
<path d="M7092 9819 c-24 -12 -49 -33 -55 -46 -6 -14 -17 -22 -26 -19 -9 2
-33 7 -53 11 -28 4 -38 11 -38 24 0 37 -25 44 -126 38 -52 -3 -102 -11 -110
-17 -30 -26 -9 -70 33 -70 14 0 21 -5 17 -13 -2 -7 1 -21 9 -31 11 -15 27 -18
110 -17 53 1 100 1 104 2 33 5 51 -4 64 -33 9 -21 22 -34 37 -36 13 -2 22 -10
22 -21 0 -27 20 -39 67 -39 51 -1 61 11 60 66 -2 55 21 76 73 66 73 -14 109
-13 124 2 26 25 5 57 -44 69 -29 7 -47 18 -53 33 -11 23 -52 39 -127 48 -34 4
-55 0 -88 -17z m38 -73 c0 -2 -8 -10 -17 -17 -16 -13 -17 -12 -4 4 13 16 21
21 21 13z"/>
<path d="M1168 9795 c-10 -23 -6 -30 74 -105 94 -89 174 -194 238 -312 23 -43
48 -78 56 -78 7 0 21 -14 29 -31 15 -28 19 -30 68 -27 45 3 52 6 55 25 8 52
-148 292 -263 408 -28 28 -69 59 -91 70 -21 10 -55 31 -74 47 -43 35 -77 37
-92 3z"/>
<path d="M6692 9637 c-19 -22 -2 -57 29 -64 19 -3 29 -12 29 -23 0 -26 20 -38
77 -46 76 -10 105 0 101 34 -2 22 -11 29 -48 41 -25 8 -47 18 -49 24 -2 5 -12
18 -22 28 -22 22 -101 26 -117 6z"/>
<path d="M7095 9491 c-52 -11 -43 -81 10 -81 17 0 22 -5 18 -18 -6 -26 14 -38
76 -45 34 -4 65 -15 85 -30 42 -32 111 -35 127 -6 9 18 5 26 -31 60 -22 21
-47 39 -54 39 -7 0 -30 13 -50 29 -53 42 -126 63 -181 52z"/>
<path d="M6780 9410 c-15 -28 4 -60 35 -60 18 0 24 -6 27 -27 4 -34 33 -43
158 -46 l95 -2 0 30 c0 28 -3 31 -47 39 -38 7 -49 14 -56 36 -9 24 -18 28 -80
38 -99 17 -120 15 -132 -8z"/>
<path d="M3285 9225 c-402 -51 -715 -138 -715 -200 0 -22 31 -47 52 -42 13 4
18 1 15 -8 -3 -7 1 -22 9 -33 19 -28 75 -23 179 16 84 32 191 57 390 92 312
54 345 51 725 -62 74 -22 161 -51 194 -65 32 -13 108 -36 170 -50 l111 -26
550 -1 c462 -1 567 -4 659 -18 104 -17 531 -136 588 -164 15 -8 48 -14 73 -14
38 0 47 4 54 23 11 28 2 39 -51 63 -24 10 -49 26 -55 35 -17 22 -64 40 -266
100 -415 124 -409 123 -1087 124 -516 1 -539 2 -632 24 -54 12 -122 32 -150
45 -51 22 -339 110 -463 140 -57 15 -218 38 -240 35 -5 -1 -55 -7 -110 -14z"/>
<path d="M6778 9229 c-10 -5 -18 -21 -18 -35 0 -19 8 -29 30 -37 18 -7 30 -19
30 -30 0 -42 159 -76 180 -37 16 30 2 48 -50 65 -29 10 -51 24 -55 35 -3 11
-25 25 -52 34 -26 9 -47 16 -47 16 -1 0 -9 -5 -18 -11z"/>
<path d="M7127 9223 c-28 -27 39 -110 136 -168 27 -17 54 -38 58 -48 5 -9 13
-25 18 -34 4 -10 17 -19 27 -21 11 -2 25 -16 31 -32 10 -28 15 -30 62 -30 59
0 67 10 57 66 -11 55 -64 103 -209 192 -125 76 -163 92 -180 75z"/>
<path d="M6721 9057 c-19 -24 -4 -57 30 -64 19 -3 29 -12 29 -23 0 -32 28 -43
125 -48 l94 -5 7 28 c8 33 -3 42 -63 51 -32 5 -43 11 -43 24 0 29 -27 42 -98
48 -53 3 -70 1 -81 -11z"/>
<path d="M6780 8861 c-14 -27 2 -58 32 -63 15 -2 24 -11 26 -26 5 -31 25 -39
120 -47 87 -8 112 0 112 36 0 21 -21 34 -72 43 -28 5 -38 12 -38 26 0 26 -23
36 -102 44 -61 7 -67 6 -78 -13z"/>
<path d="M7107 8863 c-12 -11 -8 -41 18 -117 17 -51 25 -96 25 -145 0 -61 3
-70 20 -76 11 -3 24 -3 30 0 6 3 10 -4 10 -17 0 -35 18 -48 67 -48 32 0 45 5
53 19 24 45 4 190 -37 278 -15 31 -25 39 -58 45 -29 6 -44 16 -57 38 -16 29
-54 41 -71 23z"/>
<path d="M6846 8554 c-19 -18 -19 -20 -6 -45 6 -11 21 -19 35 -19 28 0 32 -12
11 -29 -24 -20 -26 -50 -4 -65 11 -8 27 -12 34 -9 10 3 14 -3 14 -20 0 -14 5
-29 12 -33 19 -12 71 -13 110 -2 35 10 40 9 76 -24 66 -60 223 -106 259 -76
28 23 14 49 -41 73 -29 13 -56 30 -59 38 -3 8 -22 20 -41 27 -22 7 -36 18 -36
28 0 37 -18 48 -82 51 -10 1 -18 7 -18 14 0 23 -41 59 -59 52 -45 -19 -51 -18
-51 9 0 19 -7 29 -26 36 -40 15 -110 12 -128 -6z"/>
<path d="M460 7990 c-8 -15 -7 -27 4 -47 14 -28 155 -172 209 -213 66 -52 101
-125 167 -350 53 -180 64 -230 68 -310 4 -99 12 -120 43 -120 12 0 19 -7 19
-19 0 -11 10 -27 22 -35 12 -8 49 -42 82 -74 50 -47 60 -63 58 -85 -3 -23 1
-28 27 -33 21 -4 31 -12 31 -24 0 -29 24 -40 95 -47 58 -5 70 -4 81 12 9 13
10 23 3 36 -7 15 -6 19 5 19 19 0 56 48 50 64 -3 8 -26 16 -51 20 -55 7 -87
-13 -80 -51 3 -16 0 -23 -12 -23 -50 0 14 94 65 96 40 2 56 13 52 36 -2 19
-12 25 -51 32 -47 8 -50 7 -83 -25 -19 -19 -34 -43 -34 -56 0 -14 -6 -23 -15
-23 -13 0 -14 4 -5 21 16 28 -9 55 -59 63 -41 6 -51 21 -51 79 l0 29 32 -27
c22 -18 38 -25 54 -21 18 5 23 1 26 -16 2 -19 9 -23 38 -23 29 0 36 4 38 23 3
18 -10 36 -50 73 -29 27 -58 47 -63 45 -6 -2 -21 5 -34 15 l-23 19 29 0 c47 0
125 31 130 51 5 20 13 22 50 20 30 -3 43 25 30 63 -15 45 -23 53 -65 60 -28 4
-41 13 -55 37 -14 25 -22 30 -41 25 -16 -4 -26 -1 -29 8 -3 7 -25 16 -49 20
-37 6 -46 11 -55 36 -7 20 -18 30 -32 30 -17 0 -25 15 -46 83 -14 45 -37 101
-51 124 -32 54 -116 146 -188 203 -30 24 -70 64 -88 87 -22 30 -39 43 -56 43
-15 0 -37 14 -58 35 -37 39 -68 45 -84 15z m622 -764 c14 -20 15 -25 4 -29 -9
-4 -18 5 -25 24 -12 35 -2 37 21 5z m160 -60 c15 -21 8 -28 -22 -22 -17 3 -42
1 -57 -5 -26 -10 -26 -9 -10 9 9 10 17 24 17 31 0 15 61 5 72 -13z"/>
<path d="M380 7876 c-9 -12 -6 -41 14 -140 38 -184 33 -404 -13 -598 -11 -45
9 -82 40 -73 15 5 19 1 19 -18 0 -33 17 -45 67 -45 57 -1 57 0 93 212 19 115
12 331 -15 465 -14 68 -27 126 -30 131 -3 4 -25 11 -49 14 -38 6 -46 12 -55
36 -11 33 -49 41 -71 16z"/>
<path d="M768 7019 c-15 -8 -18 -25 -18 -102 0 -119 -15 -207 -44 -266 -13
-25 -39 -86 -57 -136 -30 -80 -34 -101 -33 -185 0 -120 16 -178 49 -186 15 -4
28 -16 31 -30 6 -24 20 -31 69 -33 56 -2 59 6 45 111 -14 108 -6 156 50 288
69 161 73 178 77 315 2 73 0 136 -6 144 -9 13 -28 18 -78 20 -16 1 -23 7 -23
20 0 19 -24 51 -38 51 -4 0 -15 -5 -24 -11z"/>
<path d="M228 6839 c-28 -16 -22 -52 37 -200 31 -77 65 -181 76 -232 11 -50
29 -128 41 -172 23 -91 20 -176 -12 -291 -10 -38 -30 -139 -44 -224 -24 -140
-25 -160 -13 -201 32 -105 222 -325 302 -349 73 -21 156 -23 214 -6 30 9 55
16 56 16 2 0 10 -101 22 -279 8 -124 -14 -372 -38 -429 -28 -66 -190 -263
-288 -349 -47 -42 -90 -82 -94 -90 -13 -22 2 -53 26 -53 34 1 198 150 282 257
41 52 75 90 75 84 0 -21 -120 -159 -216 -249 -54 -51 -103 -100 -107 -108 -15
-26 18 -52 63 -49 35 2 52 13 136 91 53 48 110 106 128 127 l31 39 12 -90 c11
-87 30 -157 94 -357 15 -49 44 -153 63 -230 46 -186 207 -668 294 -880 90
-219 280 -655 291 -669 5 -6 34 -61 66 -122 34 -68 88 -150 136 -210 44 -54
128 -162 187 -239 58 -77 134 -171 167 -210 33 -38 106 -124 162 -190 104
-124 195 -215 519 -517 311 -291 390 -346 442 -314 33 20 6 56 -128 165 -71
59 -476 436 -553 516 -27 27 -88 97 -135 154 -48 58 -111 132 -141 165 -29 34
-100 123 -157 199 -58 76 -132 170 -165 210 -34 40 -73 90 -88 112 -37 54
-123 217 -110 210 5 -4 37 -48 71 -98 34 -51 91 -128 127 -172 81 -100 332
-357 387 -395 48 -34 360 -205 424 -232 134 -58 645 -191 717 -186 43 3 48 5
51 29 3 22 -2 29 -29 38 -18 6 -40 11 -50 11 -11 0 -19 6 -19 13 0 25 -34 45
-95 57 -72 14 -239 57 -430 112 -136 39 -242 86 -420 185 -126 71 -350 304
-477 495 -23 35 -67 97 -98 138 -31 41 -75 107 -98 145 -51 87 -122 273 -122
321 0 54 -14 71 -65 78 -33 5 -45 12 -45 25 0 46 -63 57 -77 14 -9 -25 -17
-10 -81 154 -91 230 -245 696 -276 833 -14 58 -40 155 -59 215 -64 200 -95
322 -102 396 -4 41 -13 97 -21 124 -16 61 -21 189 -7 207 37 47 50 118 22 118
-5 0 -9 5 -9 12 0 9 3 9 12 0 17 -17 24 -15 49 11 20 20 21 20 14 2 -16 -43
-17 -56 -5 -70 11 -13 8 -15 -14 -15 -22 0 -31 -8 -47 -45 -16 -35 -17 -49 -9
-65 9 -18 18 -20 60 -17 42 4 49 2 53 -15 4 -13 13 -19 29 -18 47 4 49 2 31
-35 -20 -42 -53 -48 -53 -10 0 29 -25 43 -49 28 -11 -7 -16 -27 -18 -69 -1
-49 4 -66 28 -104 31 -51 92 -178 134 -285 15 -38 54 -116 86 -171 33 -56 86
-164 119 -239 33 -76 79 -172 104 -214 24 -42 67 -119 97 -171 29 -52 84 -147
121 -210 38 -63 85 -158 105 -210 66 -174 181 -428 220 -487 63 -94 253 -321
344 -410 104 -102 247 -210 398 -301 117 -70 253 -154 391 -242 59 -38 83 -48
114 -47 26 1 43 8 50 20 16 27 -10 46 -319 237 -268 166 -414 267 -492 340
-56 53 -274 316 -316 382 -36 56 -158 328 -197 438 -13 36 -32 82 -42 103 -10
20 -14 37 -8 37 5 0 10 -3 10 -7 0 -5 7 -17 16 -28 12 -16 27 -20 71 -20 54 0
57 -1 64 -30 5 -18 36 -56 77 -95 43 -40 72 -76 76 -95 10 -38 24 -55 47 -55
11 0 19 -7 20 -17 1 -34 35 -78 62 -81 18 -2 24 -8 20 -18 -8 -23 16 -44 52
-44 18 0 38 -7 45 -15 7 -8 19 -15 26 -15 8 0 14 -5 14 -10 0 -6 24 -35 53
-64 47 -48 57 -54 95 -54 29 -1 45 4 49 14 3 9 17 14 37 12 19 -1 47 7 69 21
20 12 37 19 37 14 0 -4 -14 -16 -30 -25 -31 -18 -36 -33 -21 -57 12 -19 81
-21 109 -3 22 14 25 13 51 -15 20 -23 25 -34 17 -46 -14 -22 8 -67 33 -67 23
0 44 31 36 53 -4 10 2 14 24 14 24 0 30 -5 34 -26 6 -32 4 -35 -21 -22 -29 16
-56 -17 -43 -52 9 -24 15 -26 58 -24 41 2 48 5 51 24 4 29 22 30 22 2 0 -13
18 -38 45 -62 25 -22 45 -44 45 -47 0 -11 -160 0 -240 17 -67 13 -187 68 -135
61 44 -6 63 41 26 62 -11 5 -21 20 -23 32 -2 18 -13 24 -53 33 -40 8 -50 15
-55 35 -8 36 -57 41 -65 7 -11 -43 -2 -81 23 -93 28 -14 42 -27 19 -18 -9 3
-24 1 -32 -6 -24 -20 -18 -49 15 -68 17 -9 33 -25 36 -34 8 -26 189 -124 264
-143 36 -9 117 -21 180 -25 192 -14 462 -42 730 -75 90 -11 170 -15 240 -12
112 6 302 44 385 76 158 61 508 253 629 345 39 29 103 84 142 122 75 74 194
226 194 249 0 14 -32 37 -47 34 -22 -4 -31 3 -27 19 7 27 -7 39 -53 47 -41 6
-42 5 -69 -34 -36 -55 -41 -52 -8 4 29 51 27 95 -5 95 -10 0 -21 9 -24 21 -3
11 -14 23 -25 26 -17 4 -18 10 -12 40 5 20 6 41 4 47 -2 6 7 12 22 13 15 0 30
7 35 14 10 16 -7 49 -26 49 -7 0 -15 12 -17 27 -3 25 -9 29 -56 38 -30 5 -51
13 -47 17 12 11 -15 48 -35 48 -26 0 -42 -33 -39 -78 2 -20 -3 -47 -9 -58 -24
-44 -17 -104 12 -104 8 0 16 -12 18 -28 3 -15 9 -36 13 -47 8 -18 7 -18 -8 -7
-28 23 -115 8 -151 -26 -17 -16 -39 -32 -48 -35 -10 -4 -18 -11 -18 -17 0 -5
-7 -10 -16 -10 -10 0 -13 6 -9 19 9 29 -19 44 -70 39 -56 -7 -91 -29 -108 -71
-8 -17 -21 -38 -30 -45 -13 -11 -19 -9 -41 13 -27 27 -55 32 -88 14 -12 -6
-38 -8 -63 -4 -36 5 -45 11 -54 35 -8 23 -16 30 -36 30 -18 0 -29 -6 -32 -20
-3 -11 -14 -20 -24 -20 -11 0 -22 -6 -25 -14 -8 -22 -55 -6 -90 31 -17 18 -38
33 -46 33 -8 0 -20 11 -27 24 -9 16 -25 26 -50 30 -26 4 -44 15 -60 36 -25 35
-63 38 -70 5 -4 -24 38 -103 60 -110 9 -3 30 -26 48 -50 35 -48 54 -55 83 -28
10 9 18 11 18 5 0 -6 -5 -14 -11 -18 -6 -3 -9 -19 -7 -35 5 -32 -6 -36 -47
-17 -14 6 -25 19 -25 30 0 10 -4 18 -9 18 -6 0 -16 12 -23 28 -7 15 -20 28
-28 28 -8 1 -27 2 -42 3 -18 1 -28 7 -28 16 0 8 -9 24 -21 36 -19 19 -22 19
-44 5 -15 -10 -35 -13 -58 -9 -29 4 -36 10 -39 32 -2 22 -8 26 -33 26 -29 0
-30 -2 -35 -55 -5 -54 -6 -55 -36 -55 -28 0 -31 3 -30 29 1 17 -6 33 -17 40
-15 9 -22 7 -37 -11 -15 -20 -20 -21 -30 -8 -19 23 -31 19 -96 -34 -49 -40
-70 -50 -114 -56 -82 -11 -93 -19 -85 -63 8 -44 20 -60 46 -64 11 -2 20 -7 20
-13 3 -50 81 -61 136 -19 38 29 38 29 64 3 11 -11 27 -18 35 -15 8 3 14 1 14
-4 0 -6 -4 -10 -9 -10 -5 0 -13 -9 -16 -20 -13 -41 38 -67 65 -35 21 26 32 16
12 -10 -12 -15 -18 -34 -15 -45 7 -25 -7 -25 -113 -5 -53 10 -98 27 -143 53
-36 22 -97 56 -136 77 -38 20 -95 56 -125 79 -30 24 -71 51 -90 61 -19 9 -44
26 -55 36 -22 20 -128 69 -149 69 -43 0 -44 -75 -2 -86 14 -3 27 -15 30 -28 4
-15 22 -29 59 -44 30 -13 72 -38 93 -56 47 -40 181 -124 279 -176 67 -35 71
-39 49 -48 -12 -6 -24 -21 -26 -34 l-4 -23 -11 25 c-9 20 -22 28 -69 38 -33 7
-71 13 -85 14 -18 2 -25 7 -22 15 8 21 -15 40 -57 47 -29 5 -42 13 -52 33 -9
19 -24 29 -51 35 -21 4 -52 15 -69 24 -32 17 -62 15 -115 -7 -39 -16 -49 -9
-31 21 12 19 10 24 -15 46 -34 29 -57 90 -29 78 43 -18 112 -6 112 20 0 20
-47 59 -64 53 -10 -4 -30 8 -54 33 -36 35 -43 38 -79 33 -25 -3 -43 -1 -47 6
-7 11 11 15 47 11 20 -2 47 17 47 32 0 19 -120 128 -141 128 -12 0 -36 16 -55
35 -35 37 -52 43 -72 23 -22 -22 -12 -42 50 -105 53 -53 59 -63 40 -63 -13 0
-22 6 -22 16 0 9 -22 25 -54 39 -52 23 -75 48 -56 60 31 19 -27 121 -63 111
-14 -3 -32 7 -59 35 -28 28 -45 38 -58 34 -10 -3 -21 -1 -25 5 -4 7 -19 9 -35
5 -28 -6 -28 -6 -23 35 5 35 3 42 -14 46 -10 3 -24 19 -30 35 -8 20 -18 30
-30 28 -30 -4 -73 12 -73 28 0 9 6 12 19 8 10 -3 26 -2 36 1 14 6 16 14 10 53
-8 52 -20 71 -44 71 -10 0 -27 13 -39 30 -13 16 -30 30 -39 30 -12 0 -13 3 -4
14 6 7 9 26 6 42 -7 38 7 59 31 49 32 -14 85 -12 100 2 15 15 6 44 -19 60 -7
5 3 10 28 13 35 4 40 8 43 33 3 24 7 28 24 23 34 -8 58 11 59 47 1 27 3 25 10
-14 24 -125 99 -363 153 -489 5 -12 0 -16 -21 -15 -22 0 -29 -6 -36 -31 -11
-38 7 -84 39 -98 11 -5 28 -23 37 -39 13 -22 23 -28 38 -24 26 7 69 -12 69
-30 0 -8 13 -21 28 -30 16 -9 33 -26 38 -37 7 -17 19 -22 71 -24 53 -3 63 0
72 17 8 15 7 23 -3 34 -12 11 -11 15 6 26 13 8 17 18 13 31 -6 20 1 24 38 20
18 -1 47 16 47 30 0 18 -48 60 -68 60 -13 0 -37 14 -54 32 -31 32 -31 32 -9
42 16 7 21 17 19 35 -3 21 -10 27 -46 34 -31 6 -46 15 -54 33 -6 13 -23 27
-37 30 -14 3 -33 8 -42 10 -15 4 -42 66 -64 144 -7 24 -6 24 27 -8 19 -18 43
-32 54 -31 38 4 53 -1 59 -20 4 -13 17 -20 46 -23 55 -5 69 6 69 53 0 52 -15
79 -43 79 -54 1 -67 5 -67 23 0 23 -47 70 -64 64 -7 -3 -19 -1 -26 3 -8 5 -22
4 -32 -1 -15 -8 -18 -6 -18 19 0 31 -22 58 -39 47 -6 -3 -13 7 -17 22 -3 15
-10 44 -16 63 -20 68 -189 494 -246 620 -11 25 -28 83 -37 130 -8 47 -22 119
-30 160 -7 41 -17 122 -20 180 -13 224 -62 426 -142 587 -191 384 -365 640
-440 649 -15 1 -41 18 -59 38 -37 40 -37 40 -65 26 -34 -19 -22 -53 39 -121
84 -92 150 -194 263 -409 151 -289 197 -444 214 -725 12 -185 60 -412 114
-532 23 -50 41 -93 41 -97 0 -3 20 -54 45 -112 25 -57 45 -106 45 -108 0 -9
-56 9 -63 20 -4 8 -15 14 -22 14 -21 0 -19 14 5 35 11 10 20 21 20 24 -1 19
-22 33 -58 37 -32 4 -50 -1 -82 -21 -33 -21 -43 -23 -59 -13 -26 16 -51 -5
-51 -42 0 -26 -3 -28 -40 -27 -33 2 -39 5 -34 20 7 22 -12 47 -35 47 -9 0 -21
10 -26 23 -9 21 -28 28 -82 29 -13 0 -23 6 -23 15 0 8 6 13 13 10 20 -7 47 12
47 33 0 14 -12 25 -40 36 -22 9 -40 20 -40 24 0 5 -21 19 -47 32 -59 28 -88
54 -69 61 18 7 29 56 16 72 -14 17 -81 27 -97 13 -19 -15 -16 -6 13 47 31 55
24 69 -41 79 -38 7 -41 5 -59 -28 -10 -19 -16 -42 -13 -50 4 -9 0 -19 -7 -23
-7 -5 -18 -17 -25 -28 -11 -19 -12 -18 -6 5 4 14 8 36 9 50 0 14 8 30 17 37 9
7 22 26 29 43 17 42 2 56 -69 63 -50 6 -55 5 -82 -24 -34 -36 -38 -30 -8 12
11 16 22 35 23 42 10 47 33 61 38 25 2 -19 11 -24 44 -29 23 -3 49 -12 57 -21
9 -9 34 -16 56 -16 58 -1 65 19 33 85 -20 41 -31 53 -49 53 -13 0 -27 9 -34
22 -9 18 -9 20 4 15 27 -10 45 16 51 80 8 75 2 80 -86 84 -12 0 -18 8 -18 24
0 15 -9 29 -21 36 -29 15 -49 -6 -56 -58 -5 -37 -6 -39 -42 -38 l-37 0 4 53
c3 28 1 53 -4 53 -5 1 -20 3 -34 5 -14 3 -31 5 -37 6 -8 1 -13 17 -13 42 0 23
-3 93 -7 156 -6 115 -6 115 14 97 11 -10 37 -21 57 -24 29 -4 36 -10 36 -28 0
-13 9 -33 19 -46 18 -21 22 -23 42 -11 20 13 21 12 16 -9 -10 -39 8 -57 58
-57 51 0 53 3 78 96 14 52 4 62 -61 62 -38 0 -43 2 -37 19 10 32 -22 54 -66
47 -34 -5 -41 -3 -55 19 -9 14 -14 28 -10 32 3 4 31 8 61 9 58 3 95 17 95 37
0 27 -19 38 -67 40 -42 2 -49 5 -45 20 2 9 -1 24 -8 32 -11 13 -7 15 29 15 24
0 49 -6 56 -14 8 -7 32 -14 55 -14 45 -1 60 16 60 66 0 38 -17 52 -69 55 -44
2 -42 -2 -45 82 -1 28 -4 31 -53 39 -46 8 -52 12 -55 35 -2 19 -9 27 -28 29
-14 1 -55 10 -93 19 -61 15 -69 16 -83 1 -21 -21 -5 -53 31 -62 15 -4 25 -13
25 -24 0 -25 62 -53 133 -60 54 -4 58 -7 53 -26 -3 -12 -6 -27 -6 -33 0 -7 -4
-13 -10 -13 -5 0 -10 9 -10 20 0 25 -22 36 -86 45 -39 5 -53 3 -63 -9 -17 -20
1 -52 33 -60 15 -4 26 -14 28 -28 2 -14 15 -25 38 -34 l35 -12 -42 -7 c-49 -9
-67 -26 -58 -55 4 -14 15 -20 36 -20 26 0 30 -3 27 -22 -4 -29 -18 -39 -39
-28 -9 5 -19 7 -22 3 -4 -3 -12 7 -19 23 -20 46 -37 54 -63 28 -15 -15 -17
-15 -28 0 -8 11 -29 18 -58 19 -40 2 -44 4 -44 26 0 43 -26 47 -100 16 -44
-19 -86 -29 -118 -30 l-49 0 -54 79 c-44 65 -54 86 -54 121 0 52 34 253 61
359 32 124 35 226 11 321 -12 44 -30 122 -41 173 -11 51 -45 155 -76 232 -30
77 -55 146 -55 154 0 17 -14 28 -44 32 -53 8 -61 12 -64 30 -3 18 -29 44 -41
44 -3 0 -14 -5 -23 -11z m912 -2169 c0 -5 -5 -10 -11 -10 -5 0 -7 5 -4 10 3 6
8 10 11 10 2 0 4 -4 4 -10z m170 -60 c0 -13 -7 -20 -20 -20 -25 0 -27 27 -2
33 9 3 18 5 20 6 1 0 2 -8 2 -19z m-218 -32 c-7 -7 -12 -8 -12 -2 0 14 12 26
19 19 2 -3 -1 -11 -7 -17z m381 -463 c15 1 27 -3 27 -7 0 -4 -4 -8 -9 -8 -5 0
-13 -9 -16 -20 -9 -28 -20 -25 -45 10 -18 25 -19 33 -9 52 l13 23 6 -25 c5
-19 13 -25 33 -25z m100 -155 c20 -10 27 -21 27 -42 0 -33 -1 -33 -42 -12 -30
15 -53 15 -91 -1 -17 -7 -18 -6 -6 13 10 16 10 23 0 35 -10 13 -9 16 6 19 32
7 78 2 106 -12z m-33 -140 c0 -5 24 -25 54 -44 57 -36 99 -41 143 -18 33 18
45 15 31 -7 -16 -26 6 -53 41 -49 19 2 27 -2 29 -17 5 -26 28 -44 51 -38 15 4
18 0 14 -19 -3 -15 2 -29 11 -37 26 -21 20 -51 -9 -51 -19 0 -25 5 -25 21 0
38 -18 56 -63 63 -36 6 -45 12 -54 36 -13 33 -42 40 -66 15 -24 -24 -71 -9
-84 26 -7 17 -19 29 -30 29 -40 0 -99 29 -115 57 -25 40 -23 43 27 43 25 0 45
-4 45 -10z m439 -125 c1 -5 -15 -10 -34 -10 -42 0 -45 14 -7 37 25 16 27 16
34 0 4 -9 7 -21 7 -27z m269 -7 c6 -18 25 -70 41 -116 36 -97 37 -105 14 -94
-108 54 -126 72 -112 109 12 33 -1 48 -53 57 -29 5 -39 3 -50 -12 -7 -10 -30
-28 -51 -41 l-37 -23 11 25 c8 17 17 23 30 20 15 -4 23 4 38 36 13 30 20 38
24 27 5 -11 20 -16 53 -16 42 0 47 3 57 30 14 38 21 38 35 -2z m-648 -123 c0
-12 -19 -12 -23 0 -4 9 -1 12 9 8 7 -3 14 -7 14 -8z m169 -20 c12 -35 2 -81
-13 -56 -4 6 -19 11 -34 11 l-27 0 25 13 c19 10 24 20 22 40 -4 38 12 34 27
-8z m69 -112 c-16 -42 -5 -63 32 -63 l30 0 -17 -35 c-18 -39 -29 -42 -52 -20
-9 8 -26 23 -39 33 -13 10 -25 32 -29 55 -6 37 -6 37 25 31 24 -5 32 -2 42 16
16 31 22 20 8 -17z m330 17 c20 -9 32 -21 32 -34 0 -18 -3 -17 -32 10 -18 16
-37 33 -43 38 -7 6 -7 7 0 4 6 -3 25 -11 43 -18z m-88 -75 c13 -14 19 -25 14
-25 -8 1 -50 50 -41 50 2 0 14 -11 27 -25z m-90 -32 c-1 -11 -50 -70 -50 -60
0 14 34 67 42 67 4 0 8 -3 8 -7z m-214 -92 c13 -14 24 -39 24 -56 0 -43 19
-74 84 -135 60 -57 97 -82 119 -79 24 3 38 -1 33 -10 -11 -18 29 -115 52 -127
13 -6 30 -23 37 -37 12 -24 12 -25 -14 -22 -14 2 -34 4 -43 4 -9 1 -20 10 -23
21 -7 22 -32 50 -45 50 -5 0 -15 -7 -24 -15 -17 -17 -7 -31 -114 160 -28 50
-73 130 -101 180 -28 49 -51 93 -51 98 0 15 43 -5 66 -32z m129 -51 c3 -6 -4
-10 -17 -10 -18 0 -20 2 -8 10 19 12 18 12 25 0z m820 -310 c3 -5 1 -10 -4
-10 -24 0 -10 -50 19 -72 17 -12 37 -32 45 -45 15 -22 14 -23 -12 -23 -25 0
-32 9 -65 74 -20 41 -34 77 -31 80 10 10 41 7 48 -4z m-218 -32 c-3 -8 -6 -5
-6 6 -1 11 2 17 5 13 3 -3 4 -12 1 -19z m2833 -233 c0 -13 -4 -26 -8 -29 -4
-2 -8 10 -8 29 0 19 4 31 8 29 4 -3 8 -16 8 -29z m-2930 -75 c16 -7 30 -19 30
-26 0 -7 12 -21 28 -31 53 -33 67 -63 28 -63 -17 0 -27 9 -36 30 -16 38 -55
70 -86 70 -29 0 -34 8 -27 43 5 26 6 27 19 9 7 -11 27 -25 44 -32z m2906 -137
c-10 -10 -19 5 -10 18 6 11 8 11 12 0 2 -7 1 -15 -2 -18z m-345 -64 c-13 -12
-27 -35 -33 -50 -5 -16 -14 -29 -20 -29 -5 0 -8 3 -6 8 28 57 44 82 57 85 9 3
18 5 20 6 3 0 -6 -9 -18 -20z m239 11 c0 -5 -5 -10 -11 -10 -5 0 -7 5 -4 10 3
6 8 10 11 10 2 0 4 -4 4 -10z m-1505 -50 c-21 -22 -44 -40 -50 -40 -10 1 72
80 83 80 3 0 -12 -18 -33 -40z m1617 -11 c-48 -45 -54 -82 -15 -87 21 -3 22
-5 7 -27 -9 -13 -13 -29 -9 -35 4 -6 4 -18 0 -28 -5 -14 -8 -13 -18 8 -16 31
-32 35 -55 12 -44 -44 -52 -37 -52 44 0 83 -2 85 -70 87 -45 2 -54 22 -12 30
17 3 33 0 44 -10 10 -9 42 -18 73 -20 51 -4 57 -2 92 31 21 20 43 35 48 35 6
0 -9 -18 -33 -40z m-573 -38 c-19 -30 -4 -51 36 -51 19 0 35 -4 35 -9 0 -10
-106 -64 -147 -76 -18 -5 -20 -2 -16 14 3 12 9 18 14 15 5 -3 18 -2 29 1 17 5
20 15 20 59 0 55 4 66 27 66 10 0 11 -4 2 -19z m-639 -32 c0 -14 10 -24 29
-32 16 -6 32 -19 34 -29 4 -16 0 -18 -28 -16 -25 1 -39 -4 -55 -23 -23 -26
-23 -21 0 24 11 23 11 33 2 48 -16 26 -15 49 3 49 9 0 15 -9 15 -21z m-152
-18 c-1 -23 -5 -27 -21 -23 -12 3 -25 -2 -33 -13 -13 -18 -14 -17 -14 6 0 33
11 46 40 52 14 2 26 5 27 6 1 0 1 -12 1 -28z m1447 9 c-10 -11 -21 -18 -23
-15 -3 3 3 12 14 20 27 20 30 18 9 -5z m65 -65 c-7 -9 -15 -13 -18 -10 -3 2 1
11 8 20 7 9 15 13 18 10 3 -2 -1 -11 -8 -20z m-1476 -10 c-9 -14 -20 -25 -24
-25 -4 0 -5 11 -2 25 3 16 11 25 23 25 18 0 19 -1 3 -25z m436 -3 c0 -17 -25
-25 -56 -18 -19 5 -23 10 -16 19 14 16 72 16 72 -1z m-1574 -17 c-11 -8 -25
-15 -30 -15 -6 0 -2 7 8 15 11 8 25 15 30 15 6 0 2 -7 -8 -15z m1386 -39 c14
-8 23 -5 46 17 38 37 50 34 18 -4 -14 -17 -26 -36 -26 -44 0 -17 -23 -25 -76
-25 l-45 0 26 37 c14 21 25 47 26 58 1 17 2 16 8 -4 3 -13 14 -29 23 -35z
m358 33 c35 2 14 -13 -44 -33 -58 -19 -76 -20 -76 -5 0 6 6 9 13 6 18 -6 47
11 47 29 0 12 5 14 18 9 9 -4 28 -7 42 -6z m435 -19 c-10 -11 -21 -17 -24 -14
-3 3 3 12 13 20 28 20 32 17 11 -6z m51 -74 c-32 -27 -38 -37 -34 -59 3 -15 1
-30 -3 -33 -5 -3 -9 3 -9 13 0 11 -5 24 -11 30 -7 7 4 22 37 52 26 23 50 39
53 36 3 -4 -12 -21 -33 -39z m194 -40 c0 -8 -113 -86 -124 -86 -5 0 19 20 54
45 65 45 70 49 70 41z m-536 -66 c-20 -28 -43 -54 -51 -58 -9 -5 -13 -19 -11
-33 5 -37 43 -37 88 0 22 17 44 31 50 31 18 0 80 51 80 65 0 14 45 47 53 39 9
-9 -18 -53 -36 -58 -9 -2 -20 -17 -23 -34 -7 -33 -26 -46 -56 -36 -22 7 -98
-39 -98 -59 -1 -6 -27 -24 -60 -39 l-59 -27 -34 40 c-21 26 -43 41 -61 43 -16
2 -41 18 -61 40 -29 32 -37 36 -54 26 -25 -13 -27 -47 -4 -72 14 -16 14 -18 0
-18 -27 0 -67 19 -67 31 0 28 36 88 55 91 11 2 36 -7 56 -20 42 -26 119 -38
169 -25 28 7 35 14 35 33 0 21 -7 26 -50 35 l-50 12 60 4 c33 3 68 1 79 -4 14
-7 25 -3 45 17 41 42 44 30 5 -24z m-1124 -4 l33 -14 -40 2 c-28 0 -39 4 -36
13 6 16 4 16 43 -1z m134 -38 c32 -6 60 -17 63 -25 7 -18 48 -17 63 2 22 27
31 16 10 -13 -24 -32 -19 -58 14 -66 12 -3 42 -26 67 -52 24 -25 62 -54 84
-65 43 -20 35 -23 -39 -13 -34 5 -46 11 -46 23 0 28 -22 41 -67 41 -39 0 -43
2 -43 24 0 30 -15 41 -51 38 -15 -1 -40 3 -56 9 -24 9 -30 7 -49 -15 -23 -26
-34 -24 -34 6 0 10 -3 19 -7 20 -5 0 -19 3 -33 5 -14 2 -42 6 -63 9 -33 5 -39
3 -44 -14 -5 -20 -6 -20 -36 -3 -58 32 -45 40 69 40 112 1 139 10 131 43 -6
21 -7 21 67 6z m376 -17 c0 -33 12 -52 37 -62 13 -5 28 -20 33 -33 16 -44 211
-86 239 -52 13 15 17 14 43 -11 l29 -28 -88 -18 c-113 -23 -319 -35 -309 -18
4 6 16 9 25 6 29 -9 51 5 51 31 0 19 -7 26 -30 30 -16 4 -47 22 -69 40 -21 19
-45 34 -53 34 -7 0 -20 5 -28 10 -13 8 -11 12 8 26 17 12 23 23 19 40 -4 23
-1 24 44 24 42 0 49 -3 49 -19z m105 9 c-3 -5 -11 -10 -16 -10 -6 0 -7 5 -4
10 3 6 11 10 16 10 6 0 7 -4 4 -10z m785 -44 c0 -2 -37 -25 -82 -51 -101 -59
-98 -57 -98 -52 0 5 167 105 178 107 1 0 2 -2 2 -4z m-290 -156 c-19 -11 -39
-19 -45 -19 -5 0 6 8 25 19 19 11 40 19 45 19 6 0 -6 -8 -25 -19z"/>
<path d="M1015 6698 c-11 -6 -27 -14 -35 -18 -11 -5 -20 -60 -37 -236 -31
-302 -32 -309 -103 -488 -86 -218 -147 -296 -230 -296 -42 0 -62 -40 -35 -70
10 -11 26 -20 37 -20 11 0 18 -7 18 -18 0 -31 22 -42 85 -42 89 0 137 28 201
118 29 40 68 113 89 166 l38 94 45 -24 c25 -13 53 -24 64 -24 10 0 30 -7 43
-16 32 -21 50 -8 66 46 19 64 -10 92 -53 53 -17 -16 -20 -15 -46 6 -15 12 -39
29 -54 39 -27 17 -30 42 -7 66 16 18 83 13 97 -6 21 -28 44 -22 91 26 34 34
42 49 36 65 -5 18 -13 22 -43 20 -74 -5 -102 0 -96 16 9 21 -14 45 -42 45 -20
0 -24 5 -23 28 1 52 8 57 87 57 60 0 72 -3 72 -16 0 -23 26 -42 49 -36 16 4
20 -1 23 -27 3 -29 5 -31 50 -34 56 -4 66 9 69 87 3 62 -6 70 -68 68 -36 -2
-42 1 -37 15 3 10 1 26 -5 36 -8 15 -3 22 34 42 70 38 71 74 2 83 -34 5 -51 0
-95 -25 -46 -26 -53 -34 -50 -57 2 -21 8 -26 29 -26 24 1 26 -2 16 -22 -9 -20
-17 -22 -59 -20 -43 2 -48 4 -44 21 6 24 -10 46 -33 46 -13 0 -16 8 -13 40 5
46 15 50 38 15 9 -14 23 -25 31 -25 22 0 123 68 123 84 0 27 -29 41 -60 29
-35 -13 -61 2 -79 46 -10 24 -20 30 -56 35 -35 6 -45 12 -55 36 -13 32 -38 38
-75 18z"/>
<path d="M5268 6319 c-26 -15 -23 -83 6 -145 13 -28 29 -54 34 -58 6 -3 13
-20 17 -37 4 -17 40 -80 81 -141 40 -60 78 -127 84 -147 21 -72 24 -223 6
-298 l-18 -70 -42 -6 c-27 -4 -94 4 -191 23 -83 17 -166 30 -187 30 -64 0
-153 -35 -235 -93 -94 -66 -139 -86 -214 -94 -103 -10 -161 3 -242 56 -173
115 -202 130 -269 146 -101 23 -188 30 -188 16 0 -6 -4 -11 -10 -11 -5 0 -10
7 -10 15 0 18 6 18 -160 19 -83 1 -143 7 -157 14 -35 19 -57 92 -50 165 8 82
48 191 84 229 43 46 118 80 181 82 40 2 58 7 68 20 20 28 1 53 -47 61 -29 5
-43 14 -52 32 -7 16 -24 28 -55 36 -24 6 -48 20 -53 29 -13 24 -53 23 -107 -2
-64 -29 -198 -140 -272 -226 -81 -93 -191 -187 -338 -288 -94 -65 -132 -84
-228 -116 -64 -22 -122 -45 -130 -51 -33 -28 0 -89 40 -73 11 4 13 0 9 -15
-16 -63 57 -63 232 1 96 35 143 59 235 122 63 44 141 101 172 128 31 26 58 48
61 48 2 0 7 -19 11 -42 9 -55 44 -109 120 -181 104 -100 170 -120 391 -122
120 -2 261 -18 337 -41 9 -3 66 -40 126 -83 136 -96 191 -115 342 -115 137 -1
191 16 314 99 137 92 151 95 329 61 154 -30 306 -34 315 -8 2 6 12 12 21 12
30 0 60 89 70 205 l6 69 52 -79 c54 -83 102 -191 160 -360 56 -162 64 -196 70
-286 6 -92 -4 -239 -16 -239 -4 0 -15 16 -24 35 -13 26 -23 35 -42 35 -22 0
-25 4 -25 35 0 39 -6 44 -65 48 -36 2 -41 5 -45 32 -5 31 -28 43 -58 29 -9 -4
-29 -8 -44 -9 -23 -2 -28 1 -28 20 0 37 -24 50 -62 32 -38 -18 -57 -12 -92 30
-24 28 -31 31 -64 26 -47 -7 -65 -21 -58 -46 4 -17 3 -18 -13 -3 -10 9 -28 16
-40 16 -13 0 -36 14 -54 35 -35 40 -76 47 -84 15 -8 -31 -39 -24 -52 11 -10
29 -14 31 -45 26 -26 -4 -39 -1 -52 14 -21 23 -37 24 -57 4 -9 -9 -30 -14 -54
-12 -34 2 -39 5 -43 32 -4 24 -11 31 -33 33 -18 2 -29 -2 -33 -12 -10 -26 -44
-20 -44 8 0 25 -30 44 -49 32 -5 -4 -22 -1 -36 6 -24 11 -29 10 -41 -7 -8 -10
-14 -29 -14 -41 0 -33 -40 -39 -65 -10 -34 41 -73 60 -90 46 -12 -10 -16 -8
-25 14 -10 26 -43 36 -55 16 -3 -6 -26 -9 -51 -8 -38 1 -44 4 -44 23 0 13 -7
28 -15 35 -20 17 -55 3 -55 -22 0 -17 -4 -19 -27 -13 -15 3 -42 19 -60 36 -45
39 -82 48 -100 23 -7 -10 -11 -26 -7 -36 8 -28 -15 -21 -26 7 -17 45 -109 62
-132 25 -7 -11 -21 -20 -31 -20 -25 0 -39 -46 -35 -112 4 -48 2 -58 -11 -58
-9 0 -21 10 -26 22 -6 12 -27 29 -47 36 -32 12 -41 12 -67 -1 -20 -10 -33 -12
-37 -5 -4 6 -26 19 -49 29 -23 10 -48 26 -55 35 -20 23 -68 45 -100 46 -44 1
-62 -19 -58 -64 l4 -38 -48 0 c-38 0 -48 4 -53 20 -8 24 -54 50 -90 50 -29 0
-95 -31 -114 -54 -16 -19 -11 -46 11 -59 13 -8 25 -5 55 16 55 38 64 34 17 -7
-33 -29 -37 -37 -28 -53 6 -10 22 -19 35 -20 13 0 30 -1 37 -2 6 -1 12 -7 12
-15 0 -7 9 -25 21 -40 l20 -26 -25 0 c-21 0 -26 5 -26 25 0 31 -31 49 -55 31
-13 -9 -16 -23 -13 -54 3 -38 2 -42 -20 -42 -25 0 -103 -36 -114 -53 -4 -6 -2
-20 4 -30 9 -18 17 -19 100 -12 86 6 90 6 84 -13 -9 -28 15 -43 72 -44 70 -2
118 27 116 70 -2 28 1 31 20 26 14 -3 27 1 35 10 13 15 41 22 41 11 0 -4 -7
-20 -16 -36 -12 -24 -13 -34 -3 -45 15 -19 38 -18 61 3 19 17 26 5 7 -14 -6
-6 -9 -21 -7 -34 2 -19 11 -25 43 -30 52 -9 58 -5 80 39 17 36 18 36 28 15 14
-32 89 -33 110 -2 8 11 23 20 34 19 36 -4 43 0 43 27 0 27 0 27 15 6 13 -18
24 -21 63 -19 28 2 55 -2 67 -10 24 -17 89 -18 103 -1 12 16 10 83 -5 98 -6 6
-31 11 -57 12 -34 2 -45 6 -41 15 3 8 5 15 5 16 0 2 18 0 39 -4 21 -4 46 -3
55 2 19 11 45 -5 77 -46 l21 -27 -22 -21 c-17 -16 -21 -28 -16 -51 8 -40 25
-59 47 -52 15 5 19 1 19 -17 0 -32 18 -48 55 -48 25 0 30 -4 30 -25 0 -25 -1
-25 -55 -20 -30 3 -140 12 -245 20 -104 8 -299 26 -433 40 -134 14 -280 25
-325 25 -45 0 -112 3 -149 6 -63 6 -66 8 -65 32 2 22 -3 27 -38 34 -25 6 -48
5 -63 -2 -13 -5 -26 -10 -29 -10 -12 0 23 33 44 41 15 6 23 17 23 32 0 20 11
29 60 50 65 29 79 56 39 77 -19 11 -19 13 -5 35 19 29 21 54 4 59 -84 23 -97
30 -100 50 -2 15 -10 21 -30 21 -16 1 -33 6 -40 13 -27 27 -68 6 -68 -36 0
-15 7 -26 19 -29 13 -3 17 -11 14 -24 -8 -28 16 -51 44 -44 21 5 23 3 17 -19
-4 -17 0 -28 15 -38 19 -13 20 -17 6 -28 -8 -7 -15 -21 -15 -31 0 -15 -6 -17
-35 -12 -33 5 -35 4 -41 -26 -6 -29 -9 -31 -51 -31 -34 0 -45 -4 -51 -20 -5
-13 -12 -16 -20 -11 -17 10 56 71 85 71 10 0 24 5 31 12 15 15 16 55 1 63 -7
5 -5 13 6 25 8 9 13 24 9 34 -7 17 -7 17 -40 21 -12 1 -26 5 -32 9 -5 3 -20
-2 -32 -12 -18 -15 -22 -25 -16 -46 6 -23 11 -27 31 -23 14 2 25 1 25 -3 0
-12 -36 -18 -53 -9 -17 10 -101 -50 -131 -93 -10 -14 -16 -17 -16 -8 0 8 25
37 55 65 59 55 67 78 34 95 -17 10 -28 5 -74 -30 -61 -47 -88 -94 -83 -148 3
-33 6 -37 31 -37 21 1 27 -4 27 -21 0 -13 7 -30 16 -39 32 -31 63 -84 54 -90
-6 -4 -10 -26 -10 -51 0 -41 -2 -45 -20 -39 -12 4 -27 1 -35 -5 -9 -8 -8 4 6
41 24 62 16 76 -46 81 -38 3 -41 1 -62 -42 -28 -57 -29 -47 -2 24 18 45 19 59
9 71 -36 43 -72 -4 -106 -138 -21 -80 -12 -110 55 -180 109 -115 175 -154 247
-148 26 2 23 34 -7 76 -37 51 -35 90 6 140 30 36 34 19 5 -18 -37 -46 -25 -68
41 -73 31 -3 42 1 59 23 11 14 25 43 32 64 l11 39 27 -82 c71 -220 240 -479
448 -686 264 -263 381 -318 808 -380 175 -25 190 -29 180 -45 -15 -24 4 -51
38 -55 14 -2 24 -7 21 -12 -3 -5 -1 -19 5 -31 11 -19 19 -21 75 -17 45 3 72
10 98 28 47 32 65 64 48 84 -10 12 -5 16 36 21 70 10 185 42 256 71 102 43
191 109 284 212 259 284 381 402 556 540 73 58 79 61 105 49 l27 -12 -29 -3
c-21 -3 -31 -12 -42 -39 -17 -40 -12 -63 15 -70 11 -3 18 -10 16 -16 -2 -7 -9
-32 -15 -55 -11 -43 -12 -44 -45 -38 -27 5 -36 3 -50 -16 l-17 -23 7 25 c12
44 10 62 -7 74 -36 23 -78 -43 -50 -77 7 -8 7 -31 0 -66 -5 -30 -7 -62 -5 -72
3 -10 -1 -20 -8 -23 -9 -3 -15 4 -17 17 -2 15 -11 23 -30 25 -22 3 -29 -2 -34
-22 -8 -35 1 -56 25 -56 14 0 21 -8 23 -27 2 -24 8 -29 36 -31 27 -3 32 -7 27
-22 -6 -20 4 -29 51 -46 21 -7 38 -8 49 -1 15 8 17 6 12 -13 -3 -13 -2 -32 4
-42 12 -22 6 -23 -25 -3 -32 21 -52 10 -71 -40 -19 -49 -17 -73 7 -89 13 -8
22 -6 37 8 20 18 20 18 9 -12 -9 -24 -9 -34 1 -46 16 -19 86 -19 102 0 6 8 15
11 21 8 13 -9 39 17 57 56 l15 35 4 -28 c2 -15 12 -33 23 -40 11 -7 27 -27 35
-46 13 -31 13 -37 0 -50 -14 -13 -16 -13 -22 2 -3 9 -12 17 -19 17 -7 0 -15
10 -18 21 -5 19 -10 21 -44 14 -21 -5 -58 -11 -83 -14 -42 -6 -45 -8 -45 -36
0 -26 4 -30 31 -33 25 -2 31 -7 27 -21 -2 -10 2 -24 10 -32 20 -21 28 -69 11
-69 -8 0 -14 4 -14 10 0 5 -8 14 -18 19 -14 8 -27 4 -55 -15 -21 -14 -37 -23
-37 -21 0 2 11 18 25 36 31 42 21 66 -32 74 -41 7 -62 -6 -94 -58 -11 -16 -19
-25 -19 -19 0 5 14 32 31 59 34 53 31 77 -9 83 -27 4 -77 -62 -87 -115 -8 -45
14 -69 48 -52 18 10 19 9 13 -14 -8 -33 17 -60 48 -51 21 7 21 6 2 -15 -11
-11 -25 -21 -33 -21 -7 0 -21 -5 -31 -11 -12 -7 -36 -9 -63 -5 -38 6 -47 11
-56 36 -7 19 -18 30 -31 30 -31 0 -43 -24 -40 -76 2 -39 8 -51 26 -60 15 -7
20 -14 13 -18 -17 -11 -13 -44 7 -54 9 -5 26 -6 37 -1 33 13 39 10 22 -9 -10
-10 -17 -21 -17 -25 0 -15 34 -37 59 -37 23 0 27 -4 26 -27 0 -27 1 -28 56
-28 35 0 55 -4 53 -10 -3 -6 2 -19 9 -29 17 -23 53 -14 62 15 4 10 13 19 21
19 19 0 114 88 114 106 0 7 -7 19 -15 27 -17 18 -10 27 21 27 16 0 28 10 38
28 21 40 43 57 59 44 6 -6 29 -12 51 -13 45 -4 68 18 88 83 10 36 10 42 -6 54
-10 7 -23 11 -29 8 -18 -6 -41 12 -32 26 5 7 20 10 40 7 17 -3 37 -2 43 2 23
14 38 62 37 115 -3 62 -16 86 -49 85 -51 -1 -61 6 -64 50 -3 39 -2 41 20 36
29 -7 78 28 78 55 0 26 -30 41 -54 28 -12 -7 -21 -7 -25 0 -3 5 -25 13 -48 17
-38 6 -43 4 -59 -20 -23 -35 -29 -25 -9 15 9 17 13 40 10 50 -9 27 -49 26 -68
-2 -16 -22 -16 -21 -5 12 15 48 27 59 39 37 6 -10 20 -17 32 -16 40 3 47 -1
47 -25 0 -27 15 -34 70 -32 31 1 35 5 45 38 13 45 27 62 19 22 -7 -36 15 -59
47 -51 18 5 20 2 15 -18 -8 -30 16 -49 61 -48 45 1 55 12 61 72 3 39 1 51 -9
53 -8 0 -18 2 -24 3 -5 2 -14 3 -19 4 -5 0 10 15 32 31 62 45 54 72 -21 77
-26 2 -50 -5 -77 -22 -22 -14 -40 -22 -40 -18 0 5 16 18 35 31 37 23 45 51 21
71 -18 15 -86 -17 -110 -51 -23 -33 -20 -10 10 61 33 83 30 103 -20 113 -48
10 -59 2 -85 -65 -25 -65 -84 -181 -75 -147 4 14 17 46 30 72 13 26 35 76 49
113 24 64 24 66 6 84 -18 18 -17 23 33 178 51 158 75 211 94 199 6 -3 -3 -20
-19 -37 -16 -17 -29 -37 -29 -44 0 -20 28 -38 50 -32 29 7 25 -4 -15 -43 -40
-38 -44 -64 -15 -80 18 -10 29 -3 81 47 34 32 69 74 80 93 10 19 18 29 19 22
0 -24 -22 -56 -81 -119 -33 -34 -59 -66 -59 -71 0 -6 8 -18 17 -28 21 -21 22
-50 4 -88 -29 -63 -7 -145 35 -129 10 3 14 -2 14 -20 0 -32 17 -44 60 -44 46
0 60 12 60 53 0 19 5 34 10 34 6 0 10 -11 10 -25 0 -28 26 -39 80 -33 29 3 37
10 59 53 14 28 36 64 47 80 12 17 43 84 68 150 26 65 56 134 67 152 34 54 12
82 -66 87 -14 0 -25 6 -25 13 0 6 -3 18 -6 26 -4 12 0 14 14 10 14 -3 26 3 38
22 23 35 10 57 -42 68 -34 7 -41 5 -57 -14 -10 -12 -17 -32 -15 -45 4 -30 -28
-63 -53 -57 -13 4 -29 -3 -44 -17 -29 -27 -32 -20 -9 15 9 14 14 34 11 46 -5
17 -2 20 14 16 30 -8 98 51 99 85 0 10 10 38 22 63 17 34 28 45 45 45 15 0 23
-6 23 -18 0 -29 21 -42 71 -42 43 0 48 3 71 38 45 67 56 97 67 176 7 49 24
105 46 154 46 99 42 117 -26 126 -45 6 -50 9 -47 29 2 17 9 21 28 19 18 -1 36
8 59 32 43 45 37 71 -21 80 -37 6 -44 4 -75 -26 -18 -17 -33 -40 -33 -50 0
-10 -7 -18 -15 -18 -9 0 -21 -12 -27 -26 -10 -22 -13 -23 -18 -9 -3 9 -21 23
-39 31 -32 14 -34 13 -68 -21 -26 -26 -34 -42 -31 -60 5 -21 2 -23 -21 -19
-37 8 -76 -24 -67 -54 6 -19 15 -22 55 -22 54 0 78 14 83 49 2 14 9 26 16 29
11 3 12 0 3 -15 -7 -15 -6 -25 3 -39 11 -15 12 -32 5 -69 -4 -28 -11 -66 -14
-85 -3 -20 -21 -60 -40 -90 -19 -29 -32 -58 -28 -63 4 -6 -11 -7 -40 -3 l-45
7 -57 -100 c-31 -55 -54 -105 -50 -111 3 -5 -6 -26 -21 -46 -24 -31 -29 -34
-40 -20 -18 26 -51 19 -71 -14 -18 -31 -45 -38 -73 -20 -11 7 -5 10 23 10 34
0 40 4 53 36 19 46 7 61 -51 66 -37 3 -41 0 -57 -32 -22 -43 -24 -26 -3 23 8
20 15 50 15 67 0 49 15 68 47 62 15 -3 32 -11 36 -19 5 -8 18 -13 30 -12 41 3
58 -1 52 -11 -3 -6 -3 -19 0 -31 5 -15 14 -19 32 -17 21 2 37 22 85 107 32 57
58 111 56 120 -2 9 -20 19 -46 24 -36 7 -47 5 -63 -9 -23 -21 -24 -32 -4 -54
14 -15 14 -19 1 -29 -8 -7 -24 -12 -35 -12 -12 1 -31 1 -42 2 -20 0 -20 1 -4
13 9 7 16 21 14 31 -5 24 -74 41 -106 26 -26 -12 -28 -9 -11 19 9 14 9 24 1
42 -6 13 -14 61 -17 108 -5 94 -13 125 -79 316 -55 159 -111 282 -164 360 -22
33 -64 99 -93 149 -58 99 -104 162 -228 310 -109 131 -161 209 -168 255 -10
61 -17 66 -91 69 -16 1 -23 7 -23 20 0 19 -24 51 -38 51 -4 0 -15 -5 -24 -11z
m-1958 -444 c-24 -25 -46 -45 -49 -45 -3 0 15 20 39 45 24 25 46 45 49 45 3 0
-15 -20 -39 -45z m-90 -89 c0 -2 -8 -10 -17 -17 -16 -13 -17 -12 -4 4 13 16
21 21 21 13z m-50 -39 c0 -2 -12 -14 -27 -28 l-28 -24 24 28 c23 25 31 32 31
24z m1730 -421 c0 -2 -8 -10 -17 -17 -16 -13 -17 -12 -4 4 13 16 21 21 21 13z
m-975 -215 c3 -5 -9 -16 -26 -25 -28 -14 -30 -14 -25 0 3 9 6 20 6 25 0 12 37
12 45 0z m189 -73 c11 -43 8 -48 -20 -38 -14 6 -37 7 -51 4 -22 -6 -25 -4 -20
10 4 10 7 21 7 26 0 5 15 11 33 13 17 2 35 5 38 5 4 1 9 -8 13 -20z m-814
-104 c22 -20 40 -40 40 -45 0 -21 -34 -6 -69 30 -34 35 -36 43 -14 50 2 1 21
-15 43 -35z m394 21 c-4 -8 -10 -12 -15 -9 -14 8 -10 24 6 24 9 0 12 -6 9 -15z
m1300 -51 c11 -29 7 -64 -9 -64 -11 0 -15 11 -15 40 0 40 13 53 24 24z m-1444
-19 c5 -14 21 -30 35 -35 29 -11 31 -18 8 -35 -15 -11 -20 -6 -40 37 -24 53
-26 58 -18 58 3 0 10 -11 15 -25z m267 10 c23 -2 45 0 48 5 3 5 15 -1 28 -13
l22 -22 -29 -27 c-16 -16 -31 -28 -33 -28 -2 0 -9 13 -14 30 -11 31 -40 47
-61 33 -7 -4 -23 -8 -35 -8 -18 -1 -23 5 -23 23 0 21 3 24 28 18 15 -4 46 -9
69 -11z m514 -55 c11 -6 24 -8 29 -5 5 3 18 0 30 -7 16 -10 24 -10 40 0 18 11
19 10 13 -19 -7 -35 6 -49 50 -49 16 0 27 -5 27 -14 0 -22 23 -35 65 -37 22
-1 45 -5 50 -9 6 -4 27 -7 47 -7 38 -1 61 15 56 38 -2 9 7 14 22 15 14 1 31 2
38 3 8 1 12 18 12 51 0 28 2 50 4 50 2 0 12 3 21 6 13 5 15 2 10 -18 -8 -29
16 -53 45 -45 11 3 29 -3 42 -14 17 -15 34 -19 73 -17 42 3 52 0 60 -17 6 -11
22 -21 35 -22 14 0 31 -1 38 -2 8 -1 12 -7 9 -13 -8 -22 13 -48 38 -48 18 0
24 -6 27 -27 3 -27 6 -28 66 -31 58 -3 64 -1 69 18 3 12 17 26 30 31 14 5 27
18 30 28 4 17 9 18 32 9 14 -6 38 -10 52 -9 18 1 29 -6 37 -23 9 -21 17 -24
54 -23 37 2 45 6 58 32 13 27 21 31 52 30 20 -1 44 -8 53 -15 14 -12 14 -15
-5 -32 -15 -14 -24 -16 -39 -8 -22 11 -51 -9 -51 -36 0 -11 -6 -13 -19 -9 -11
3 -26 -1 -35 -11 -18 -18 -15 -35 16 -98 l20 -39 -29 7 c-15 4 -188 11 -383
16 -406 10 -835 35 -828 49 39 74 36 86 -27 95 -49 8 -60 34 -12 28 21 -3 29
2 37 23 5 14 10 39 10 55 0 24 -5 31 -27 36 -16 3 -34 8 -42 10 -7 2 -20 -1
-27 -7 -11 -9 -14 -6 -14 18 0 19 -9 37 -25 51 -33 29 -34 61 -1 55 13 -3 27
1 32 9 7 9 10 5 12 -15 2 -15 12 -32 23 -37z m-351 20 c0 -5 -2 -10 -4 -10 -3
0 -8 5 -11 10 -3 6 -1 10 4 10 6 0 11 -4 11 -10z m-670 -95 c7 -9 8 -15 2 -15
-5 0 -12 7 -16 15 -3 8 -4 15 -2 15 2 0 9 -7 16 -15z m2000 -35 c0 -5 -5 -10
-10 -10 -6 0 -22 -11 -35 -25 -22 -21 -25 -22 -25 -6 0 12 10 21 25 25 14 4
25 11 25 16 0 6 5 10 10 10 6 0 10 -4 10 -10z m-1082 -21 c10 -14 10 -18 -3
-23 -11 -4 -15 1 -15 21 0 14 1 24 3 22 1 -2 8 -11 15 -20z m-1436 -81 c2 -15
13 -25 36 -32 33 -9 44 -26 17 -26 -16 0 -24 -24 -28 -77 -2 -33 -10 -42 -22
-22 -4 6 -13 8 -19 6 -7 -3 -19 -1 -27 4 -10 6 -6 9 14 9 38 0 43 22 19 76
-18 44 -19 84 -2 84 5 0 10 -10 12 -22z m3018 -32 c0 -2 -7 -9 -15 -16 -13
-11 -14 -10 -9 4 5 14 24 23 24 12z m-2205 -137 c281 -28 538 -49 1215 -99 74
-5 232 -13 350 -17 204 -6 212 -7 165 -20 -76 -20 -242 -31 -655 -43 l-375
-12 -470 71 c-258 39 -506 80 -550 92 -77 20 -135 44 -135 55 0 8 254 -7 455
-27z m2252 -26 c-9 -9 -20 -13 -24 -9 -4 4 -1 11 7 16 25 16 35 11 17 -7z
m-2676 -77 c36 -19 94 -42 129 -51 36 -9 117 -32 180 -51 66 -20 187 -46 282
-60 92 -13 189 -29 215 -34 85 -17 449 -22 833 -12 206 6 377 9 378 7 5 -5
-68 -42 -130 -65 -29 -11 -94 -43 -143 -71 -178 -102 -320 -146 -508 -156
-133 -7 -189 1 -522 73 -330 71 -375 89 -493 197 -37 33 -117 93 -178 133
-101 65 -124 87 -124 115 0 15 14 11 81 -25z m-61 -132 c74 -43 118 -75 210
-157 85 -76 234 -164 329 -194 42 -13 126 -34 186 -48 61 -13 139 -30 175 -39
168 -40 307 -58 440 -57 222 1 373 38 550 133 148 80 181 96 245 121 33 13 92
46 130 73 39 28 88 61 110 74 51 29 40 19 -110 -113 -94 -81 -301 -296 -426
-441 -79 -92 -245 -179 -404 -213 -149 -32 -507 -3 -775 63 -145 36 -192 60
-292 150 -197 177 -387 452 -459 663 -24 68 -24 69 4 44 12 -12 51 -38 87 -59z
m2746 29 c-3 -21 -6 -46 -6 -55 0 -21 -24 -26 -77 -15 -41 8 -45 7 -117 -47
-134 -99 -283 -234 -428 -389 -283 -300 -304 -319 -408 -370 -93 -46 -228 -88
-279 -86 -14 0 1 7 34 14 205 45 323 119 492 307 217 243 439 452 583 549 27
19 53 44 56 56 4 16 22 28 57 41 29 11 59 22 67 25 29 11 33 7 26 -30z m-570
-138 c-43 -30 -108 -66 -145 -80 -36 -14 -102 -46 -146 -70 -130 -74 -299
-145 -312 -132 -2 3 20 13 49 22 57 19 173 75 253 122 28 16 86 44 131 62 45
17 112 54 150 82 38 27 75 49 83 49 9 0 -20 -25 -63 -55z m1092 -67 c-20 -62
-36 -83 -62 -83 -14 -1 -31 -6 -38 -13 -19 -19 -33 -14 -15 6 10 10 17 28 17
39 0 23 44 68 59 59 5 -4 16 0 23 8 21 24 27 18 16 -16z m-146 -190 c-7 -7
-12 -8 -12 -2 0 14 12 26 19 19 2 -3 -1 -11 -7 -17z m-570 -190 c-11 -11 -32
-3 -32 12 0 12 34 18 39 7 2 -5 -1 -13 -7 -19z m111 -53 c-3 -9 -8 -14 -10
-11 -3 3 -2 9 2 15 9 16 15 13 8 -4z m67 -193 c0 -30 -2 -32 -20 -22 -11 6
-25 8 -30 5 -6 -4 -14 4 -19 17 -10 27 -1 35 40 34 26 -1 29 -4 29 -34z
m-1342 -222 c-8 -13 -19 -18 -34 -14 -12 3 -37 -2 -55 -10 -32 -15 -32 -15
-11 0 12 9 22 23 22 30 0 10 13 14 45 14 42 0 44 -1 33 -20z m1396 -112 c-26
-52 -36 -61 -45 -46 -13 19 -11 28 6 28 8 0 22 14 30 31 9 17 19 29 21 26 3
-3 -2 -20 -12 -39z m76 -92 c0 -3 -4 -8 -10 -11 -5 -3 -10 -1 -10 4 0 6 5 11
10 11 6 0 10 -2 10 -4z m-247 -233 c-39 -38 -83 -67 -83 -55 1 4 9 23 18 42
17 34 23 37 95 49 5 0 -9 -16 -30 -36z"/>
<path d="M4833 4733 c-7 -2 -13 -16 -13 -30 0 -18 8 -28 30 -36 18 -7 30 -19
30 -29 0 -19 32 -40 58 -37 41 4 60 -2 65 -21 4 -16 13 -19 53 -17 41 2 50 6
64 30 14 26 14 29 -4 42 -10 8 -37 13 -61 12 -42 -2 -43 -1 -38 25 4 20 0 29
-18 38 -20 11 -25 10 -43 -11 -24 -28 -56 -27 -56 1 0 28 -37 46 -67 33z"/>
<path d="M5096 6184 c-12 -11 -16 -36 -16 -97 0 -44 -7 -108 -15 -141 -51
-202 -83 -254 -174 -284 -30 -10 -60 -26 -65 -35 -15 -24 4 -51 38 -55 18 -2
26 -8 22 -17 -10 -27 18 -46 69 -47 64 -1 151 37 189 83 69 81 126 278 126
430 0 97 -5 105 -64 111 -28 3 -40 9 -42 21 -6 43 -41 59 -68 31z m-52 -529
c-9 -14 -18 -25 -21 -25 -5 0 5 18 20 38 17 22 18 13 1 -13z"/>
<path d="M1645 6131 c-66 -55 -102 -107 -88 -129 7 -11 22 -16 39 -15 27 2 29
0 29 -30 0 -31 1 -32 44 -34 28 -1 48 -8 53 -17 6 -10 23 -16 46 -16 20 0 46
-7 56 -15 11 -8 28 -13 38 -9 13 4 16 1 12 -10 -3 -8 0 -24 6 -36 16 -30 102
-23 156 13 21 15 46 27 56 27 19 0 58 45 58 67 0 18 29 76 43 84 15 10 -39 60
-58 53 -10 -4 -30 10 -60 41 -25 25 -45 42 -45 36 0 -6 -9 -11 -19 -11 -34 0
-51 -12 -51 -35 0 -13 5 -27 10 -30 6 -3 10 -14 10 -23 0 -13 -3 -12 -16 6
-22 31 -48 27 -75 -12 -22 -33 -25 -34 -40 -18 -11 12 -14 22 -8 34 15 27 -15
47 -67 45 -42 -2 -45 0 -39 20 5 21 -16 53 -35 53 -4 0 -29 -17 -55 -39z"/>
<path d="M1299 6041 c-55 -55 -52 -84 11 -92 43 -6 47 -4 88 36 58 59 55 78
-16 90 -40 6 -45 5 -83 -34z"/>
<path d="M6398 6000 c-27 -22 -16 -58 23 -72 18 -6 29 -17 29 -29 0 -24 22
-35 87 -44 61 -8 91 -37 129 -122 17 -39 29 -53 44 -53 11 0 20 -6 20 -13 0
-29 27 -50 66 -52 49 -2 74 10 74 36 0 34 -67 154 -112 200 -39 40 -99 81
-191 131 -18 9 -58 21 -90 26 -49 8 -62 6 -79 -8z"/>
<path d="M1276 5871 c-4 -5 -13 -28 -21 -50 -18 -53 -3 -71 57 -68 41 2 42 3
57 50 9 29 11 51 5 56 -15 14 -91 24 -98 12z"/>
<path d="M2290 5861 c-5 -11 -10 -36 -10 -56 0 -31 3 -36 30 -41 20 -4 30 -13
30 -24 0 -29 27 -42 97 -47 60 -4 74 -1 115 22 56 31 58 34 48 61 -10 26 -79
40 -113 23 l-22 -12 20 22 c35 40 -15 78 -67 50 -34 -19 -56 -18 -61 3 -7 25
-53 24 -67 -1z"/>
<path d="M1058 5769 c-41 -23 -6 -75 42 -62 20 5 21 4 11 -15 -18 -33 10 -53
69 -48 76 5 128 48 100 81 -15 18 -42 19 -58 3 -18 -18 -94 -17 -87 1 3 8 3
22 0 32 -7 21 -48 25 -77 8z"/>
<path d="M1279 5656 c-19 -41 -6 -56 50 -56 46 0 51 2 57 26 8 32 -1 40 -53
49 -39 6 -44 5 -54 -19z"/>
<path d="M6812 5288 c-31 -31 8 -80 47 -58 24 13 31 30 19 53 -10 20 -48 23
-66 5z"/>
<path d="M6877 5222 c-16 -17 -15 -50 2 -53 61 -14 111 0 111 31 0 23 -5 26
-55 34 -33 6 -44 3 -58 -12z"/>
<path d="M6736 5169 c-31 -36 -33 -64 -7 -78 34 -19 99 49 86 89 -10 30 -49
25 -79 -11z"/>
<path d="M2671 4974 c-37 -47 13 -90 52 -46 21 23 21 36 1 56 -21 22 -29 20
-53 -10z"/>
<path d="M6438 4989 c-22 -12 -24 -57 -3 -65 43 -17 100 31 74 62 -13 16 -46
18 -71 3z"/>
<path d="M1118 4939 c-40 -23 -10 -75 36 -63 33 8 49 28 41 54 -7 22 -47 27
-77 9z"/>
<path d="M1180 4871 c-20 -16 -23 -23 -14 -38 15 -24 87 -30 120 -8 41 27 27
50 -36 60 -38 5 -50 3 -70 -14z"/>
<path d="M6318 4719 c-22 -12 -23 -42 -3 -59 26 -22 67 3 63 38 -3 30 -30 39
-60 21z"/>
<path d="M2573 4065 c-5 -16 0 -55 12 -87 5 -13 2 -18 -11 -18 -9 0 -26 -7
-36 -17 -10 -9 -18 -11 -18 -5 0 6 5 14 10 17 16 10 11 54 -7 63 -25 13 -41 5
-58 -29 -14 -27 -14 -30 5 -49 11 -11 18 -25 15 -31 -9 -14 19 -55 77 -113 26
-27 48 -55 48 -62 0 -19 38 -28 56 -13 13 11 14 9 9 -14 -10 -38 9 -56 55 -55
43 0 52 7 68 55 14 43 -2 63 -55 66 -36 2 -43 5 -43 23 0 27 -56 75 -79 67
-13 -5 -13 -3 3 15 11 12 20 22 22 22 1 0 11 -15 22 -34 18 -31 24 -34 64 -33
53 2 55 11 30 103 l-19 69 -46 8 c-38 8 -47 14 -56 38 -7 22 -16 29 -36 29
-14 0 -28 -7 -32 -15z"/>
<path d="M1970 3932 c-19 -16 -21 -22 -11 -40 14 -26 38 -28 69 -6 31 22 26
58 -9 62 -14 2 -36 -5 -49 -16z"/>
<path d="M2487 3663 c-20 -19 -4 -58 43 -106 35 -36 48 -57 44 -70 -12 -39 40
-63 67 -31 23 27 58 36 76 19 14 -14 13 -15 -11 -9 -33 8 -66 -18 -66 -53 0
-27 19 -37 68 -36 50 1 79 50 50 82 -11 11 -9 13 8 9 33 -8 54 9 54 45 0 47
-11 57 -63 59 -41 2 -46 5 -49 27 -5 40 -30 47 -67 21 l-31 -24 -38 37 c-35
34 -69 46 -85 30z"/>
<path d="M6112 3367 c-41 -44 -25 -67 47 -67 43 0 86 36 75 63 -7 20 0 18 -54
23 -39 4 -49 1 -68 -19z"/>
<path d="M3766 3244 c-9 -8 -16 -20 -16 -27 0 -6 39 -49 86 -95 72 -71 92 -85
122 -88 20 -1 41 1 47 6 5 4 30 5 54 0 25 -4 50 -6 57 -3 6 2 14 -3 17 -11 4
-10 18 -16 36 -16 21 0 30 -6 34 -21 5 -17 12 -20 53 -17 44 3 49 6 70 43 26
45 30 74 12 79 -7 2 -32 9 -55 15 -31 9 -42 17 -45 34 -4 31 -43 35 -69 5 -18
-21 -20 -21 -15 -3 10 36 -8 48 -76 49 -50 1 -69 -4 -94 -21 -28 -20 -32 -21
-47 -6 -9 9 -25 17 -36 18 -10 1 -38 18 -60 38 -46 42 -53 44 -75 21z m294
-122 c0 -5 -11 -14 -25 -20 -31 -14 -33 1 -2 16 28 14 27 13 27 4z"/>
<path d="M4577 3142 c-36 -40 -11 -71 53 -66 41 3 64 28 49 55 -5 11 -17 19
-27 19 -9 0 -26 3 -37 6 -13 3 -27 -2 -38 -14z"/>
<path d="M5910 2875 c-7 -8 -13 -32 -14 -52 -1 -36 1 -38 37 -44 44 -7 71 10
81 52 7 32 -6 44 -55 53 -26 5 -40 2 -49 -9z"/>
<path d="M4002 2865 c-68 -7 -134 -16 -147 -19 -49 -12 -39 -76 11 -76 19 0
24 -5 24 -25 0 -13 8 -29 18 -34 19 -10 135 -6 227 9 149 24 406 5 465 -34 37
-25 96 -32 117 -14 31 26 4 64 -79 108 -15 8 -45 28 -66 43 -33 24 -56 30
-163 42 -145 17 -238 17 -407 0z"/>
<path d="M5802 2705 c-28 -30 -58 -55 -66 -55 -17 0 -31 -41 -23 -65 5 -10 20
-14 54 -12 39 2 50 6 58 25 5 12 17 22 25 22 26 0 112 94 104 113 -3 9 -9 17
-13 18 -93 11 -85 13 -139 -46z"/>
<path d="M5545 2562 c-26 -39 -26 -66 1 -76 22 -8 37 1 63 41 26 41 20 66 -17
71 -15 2 -28 -8 -47 -36z"/>
<path d="M5092 2512 c-34 -28 -40 -50 -20 -70 18 -18 33 -15 67 14 34 28 41
68 15 78 -23 9 -26 8 -62 -22z"/>
<path d="M5616 2509 c-30 -35 -34 -76 -8 -82 58 -15 81 -8 108 33 32 48 24 63
-37 74 -33 6 -40 3 -63 -25z"/>
<path d="M4435 1461 c-3 -5 -10 -70 -15 -143 -13 -175 -25 -234 -55 -280 -29
-44 -107 -99 -222 -157 -60 -29 -83 -47 -83 -60 0 -27 26 -44 55 -37 23 6 24
5 13 -13 -19 -30 5 -51 59 -51 48 0 125 34 233 105 144 94 168 151 185 447 8
132 9 129 -65 131 -29 2 -39 6 -35 15 13 35 -51 73 -70 43z m-6 -486 c-13 -20
-53 -55 -89 -79 -67 -45 -190 -110 -190 -101 0 2 24 17 53 31 88 45 196 123
220 159 12 18 24 32 26 30 2 -3 -7 -21 -20 -40z"/>
<path d="M4946 1278 c-66 -218 -170 -425 -310 -613 -167 -225 -205 -271 -321
-389 -88 -89 -115 -123 -120 -150 -8 -42 -1 -56 30 -56 18 0 26 8 35 35 7 21
32 53 61 78 55 47 217 226 263 290 16 23 71 98 121 167 51 70 123 185 162 260
76 146 151 346 140 373 -7 20 -56 23 -61 5z"/>
<path d="M5012 1212 c-5 -9 -26 -65 -46 -123 -46 -135 -149 -328 -236 -444
-37 -49 -99 -133 -137 -185 -39 -52 -123 -149 -187 -215 -121 -124 -162 -182
-151 -216 4 -10 9 -19 13 -20 68 -8 87 -3 101 26 8 17 73 91 144 165 71 74
150 164 175 200 25 36 85 117 132 180 103 136 211 338 266 497 45 131 43 147
-24 150 -31 2 -44 -2 -50 -15z"/>
</g>
</svg>
