<?xml version="1.0" standalone="no"?>
<!DOCTYPE svg PUBLIC "-//W3C//DTD SVG 20010904//EN"
 "http://www.w3.org/TR/2001/REC-SVG-20010904/DTD/svg10.dtd">
<svg version="1.0" xmlns="http://www.w3.org/2000/svg"
 width="1202.000000pt" height="1280.000000pt" viewBox="0 0 1202.000000 1280.000000"
 preserveAspectRatio="xMidYMid meet">
<metadata>
Created by potrace 1.15, written by Peter Selinger 2001-2017
</metadata>
<g transform="translate(0.000000,1280.000000) scale(0.100000,-0.100000)"
fill="#f9be70" stroke="none">
<path d="M6230 12789 c-412 -38 -827 -168 -1411 -440 -323 -150 -459 -247
-690 -492 -90 -94 -267 -280 -394 -412 -359 -374 -432 -450 -715 -755 -145
-157 -341 -366 -435 -465 -291 -307 -353 -389 -375 -488 -14 -65 1 -117 43
-154 17 -15 87 -59 155 -97 195 -110 247 -180 339 -451 116 -345 126 -546 62
-1195 -11 -113 -31 -281 -45 -375 -31 -205 -41 -440 -25 -545 18 -118 87 -251
234 -450 183 -248 379 -440 450 -440 27 0 48 -38 71 -131 49 -191 57 -412 26
-665 -32 -263 -60 -550 -60 -620 0 -78 22 -191 57 -288 54 -151 155 -339 471
-880 219 -377 263 -443 558 -856 132 -185 318 -457 413 -605 384 -594 585
-883 663 -950 126 -108 259 -165 438 -189 215 -29 365 -40 545 -40 159 -1 189
2 259 22 115 33 215 89 359 200 70 53 198 151 284 218 87 66 248 183 358 259
398 276 516 377 613 525 39 61 62 124 49 137 -14 13 -39 -12 -105 -104 -113
-160 -204 -237 -562 -483 -246 -169 -398 -281 -570 -419 -315 -253 -405 -291
-689 -291 -153 0 -266 8 -476 36 -251 32 -343 71 -470 200 -104 105 -204 244
-475 659 -335 512 -394 600 -572 850 -298 418 -623 941 -901 1450 -182 334
-204 476 -148 940 41 330 55 515 47 615 -8 108 -45 291 -91 449 -19 67 -35
126 -35 131 0 4 9 6 19 3 21 -5 23 -1 41 92 24 119 85 201 162 216 96 18 442
2 586 -27 92 -19 245 -81 329 -134 70 -44 90 -49 100 -23 10 25 -54 75 -161
127 -180 88 -385 129 -656 130 -210 1 -271 -11 -321 -64 -46 -48 -88 -136
-103 -212 -11 -62 -20 -72 -32 -36 -3 12 -49 112 -101 223 -52 110 -108 231
-124 268 l-30 68 23 29 c13 16 36 49 51 75 16 25 41 52 57 60 92 47 401 99
554 93 92 -4 107 -7 171 -40 127 -66 133 -63 -137 -60 -402 5 -515 -26 -607
-165 -62 -93 -20 -101 73 -14 78 72 104 86 192 103 71 13 399 17 634 8 122 -5
125 -4 128 16 5 33 -46 69 -217 151 l-154 75 -101 -6 c-240 -16 -448 -51 -546
-94 -42 -18 -89 -63 -134 -127 -11 -16 -22 -23 -27 -18 -12 12 -53 176 -73
293 -51 298 -36 1058 29 1539 9 63 14 120 11 127 -3 8 -14 14 -25 14 -29 0
-37 -39 -65 -321 -100 -992 -62 -1450 157 -1886 116 -230 262 -572 249 -585
-24 -24 -191 133 -338 318 -141 176 -224 314 -271 449 -40 116 -39 286 5 605
127 936 106 1353 -93 1765 -78 164 -121 205 -340 333 -38 22 -83 54 -99 71
-25 26 -28 36 -23 71 11 85 64 150 581 705 635 683 1329 1406 1508 1572 133
123 183 155 433 278 353 173 727 313 1074 400 216 54 303 65 531 65 362 0 594
-25 975 -106 490 -104 741 -192 1096 -385 185 -102 204 -110 224 -103 9 4 24
-1 34 -11 18 -16 23 -15 83 10 270 115 428 144 595 109 149 -31 247 -89 407
-244 182 -176 379 -436 613 -810 579 -922 828 -1548 957 -2410 65 -432 58
-629 -44 -1188 -80 -435 -88 -546 -65 -920 16 -262 15 -312 -6 -312 -5 0 -39
27 -74 60 -67 62 -84 70 -104 46 -9 -11 -1 -26 43 -73 30 -33 73 -72 96 -88
35 -24 44 -26 65 -17 46 21 48 41 41 447 -8 431 -6 451 68 845 66 351 71 407
71 745 0 263 -3 319 -23 450 -145 937 -430 1631 -1067 2595 -357 541 -562 764
-815 888 l-115 57 -170 0 c-190 0 -187 1 -436 -96 l-125 -49 -124 71 c-388
222 -769 359 -1290 464 -428 85 -771 112 -1080 84z"/>
<path d="M7435 10559 c-233 -144 -387 -198 -803 -283 -557 -115 -680 -175
-1209 -597 -301 -240 -398 -303 -554 -360 -167 -61 -327 -83 -709 -99 -420
-17 -588 -38 -885 -111 -201 -50 -315 -87 -322 -106 -15 -40 15 -37 264 25
390 96 431 102 948 127 544 27 689 57 914 191 95 56 287 198 447 330 437 360
581 428 1154 544 365 74 574 150 804 292 45 27 83 51 84 53 8 7 -9 43 -22 48
-8 3 -58 -21 -111 -54z"/>
<path d="M8283 10433 c-26 -9 -13 -335 23 -588 51 -367 110 -529 716 -1975
154 -368 182 -469 198 -700 19 -294 26 -327 79 -354 90 -47 223 2 558 205 90
54 260 153 378 219 365 203 433 256 495 383 44 92 77 220 82 317 3 64 3 65
-24 68 -30 4 -30 1 -48 -126 -17 -124 -61 -232 -129 -320 -34 -44 -143 -116
-376 -247 -104 -59 -277 -159 -385 -223 -349 -206 -482 -260 -524 -214 -22 25
-35 122 -36 263 -1 234 -40 354 -374 1147 -360 854 -498 1237 -536 1477 -24
149 -40 316 -46 465 -3 85 -7 165 -10 176 -4 23 -21 34 -41 27z"/>
<path d="M5825 8999 c-149 -14 -283 -37 -646 -109 -485 -97 -561 -106 -774
-90 -339 26 -474 12 -633 -67 -166 -82 -562 -403 -562 -455 0 -38 42 -14 192
107 274 225 421 316 562 351 64 16 92 16 335 4 357 -17 360 -17 981 104 417
80 496 90 760 90 246 1 305 -4 645 -55 463 -69 728 -150 893 -273 69 -51 105
-57 110 -19 3 18 -11 32 -75 74 -245 160 -476 225 -1083 303 -343 44 -514 53
-705 35z"/>
<path d="M5501 8490 c-146 -12 -184 -20 -426 -91 -299 -89 -303 -89 -777 -89
-268 0 -425 -4 -456 -11 -70 -17 -217 -90 -299 -148 -94 -67 -263 -228 -263
-252 0 -44 27 -31 147 74 133 116 198 162 298 212 134 66 167 69 601 61 239
-4 394 -3 435 3 35 6 152 37 259 70 344 104 405 111 1005 111 609 0 941 -20
1184 -70 109 -23 139 -26 149 -16 19 18 5 44 -31 55 -94 29 -316 61 -577 82
-175 13 -1101 20 -1249 9z"/>
<path d="M6340 8214 c-25 -2 -103 -9 -175 -14 -185 -16 -437 -56 -595 -95
-107 -27 -160 -47 -255 -97 -66 -34 -154 -79 -195 -100 -49 -25 -110 -46 -175
-59 -148 -31 -465 -22 -770 20 -472 67 -609 51 -753 -86 -47 -44 -53 -54 -42
-67 7 -9 18 -16 24 -16 7 0 48 27 91 59 136 103 211 110 600 57 290 -40 415
-48 655 -44 263 4 250 1 526 144 88 46 187 93 219 104 162 56 654 125 1040
146 206 11 482 -26 879 -117 223 -51 256 -53 230 -12 -15 24 -88 46 -317 97
-335 75 -362 78 -667 81 -151 1 -295 1 -320 -1z"/>
<path d="M10993 8024 c-3 -9 13 -61 35 -117 54 -134 61 -163 68 -282 8 -120
-5 -250 -51 -535 -36 -226 -49 -359 -63 -655 -7 -132 -13 -188 -25 -210 -8
-16 -70 -95 -136 -174 -67 -80 -133 -168 -147 -196 -14 -30 -35 -106 -48 -181
-33 -177 -49 -212 -106 -237 -14 -6 -106 -13 -205 -16 -151 -5 -180 -8 -180
-21 0 -26 73 -42 200 -42 200 -1 274 26 308 111 9 21 28 101 42 177 15 77 37
158 50 184 13 25 73 104 134 175 61 72 122 153 136 181 30 62 45 177 45 344 1
140 11 231 66 570 34 214 37 253 38 440 1 188 -1 211 -22 279 -53 168 -117
263 -139 205z"/>
<path d="M6195 7954 c-124 -23 -305 -88 -482 -174 -191 -92 -273 -144 -273
-171 0 -10 5 -19 12 -19 7 0 109 47 228 104 359 174 487 209 770 210 302 0
651 -54 930 -145 85 -28 305 -130 355 -165 24 -17 71 -18 81 -2 4 7 -6 23 -25
39 -39 32 -238 136 -331 172 -129 50 -453 118 -725 152 -151 19 -432 18 -540
-1z"/>
<path d="M6363 7699 c-172 -13 -307 -58 -446 -150 -86 -56 -130 -106 -125
-141 6 -41 34 -31 100 34 76 77 216 151 323 173 100 20 414 29 580 16 77 -6
176 -20 220 -31 221 -57 500 -184 602 -273 44 -39 133 -155 133 -174 0 -10 -8
-12 -27 -7 -55 14 -271 107 -463 199 -115 56 -224 101 -265 111 -90 21 -236
14 -435 -21 -157 -27 -262 -31 -419 -15 -103 11 -147 3 -138 -23 18 -55 385
-61 661 -11 45 8 126 17 181 21 l100 6 95 -40 c52 -23 172 -76 265 -120 237
-111 445 -196 479 -196 93 0 57 126 -77 269 -107 114 -260 200 -503 282 -163
55 -291 80 -480 92 -175 11 -211 11 -361 -1z"/>
<path d="M3607 7614 c-155 -37 -367 -196 -284 -212 9 -2 44 16 78 39 34 23 94
56 134 75 174 80 306 67 687 -71 84 -30 159 -55 166 -55 8 0 12 9 10 22 -4 32
-62 61 -244 124 -255 89 -412 111 -547 78z"/>
<path d="M4900 7344 c0 -28 23 -113 66 -246 20 -61 30 -78 45 -78 27 0 25 56
-6 166 -38 128 -64 184 -86 184 -14 0 -19 -7 -19 -26z"/>
<path d="M5167 7343 c-13 -12 -7 -134 9 -199 27 -106 78 -159 107 -113 8 12 5
24 -12 48 -14 19 -30 69 -42 129 -26 130 -39 159 -62 135z"/>
<path d="M8323 7178 c-6 -7 -13 -31 -16 -53 -5 -30 -16 -49 -46 -76 -52 -46
-117 -70 -311 -114 -164 -37 -196 -53 -168 -81 15 -16 23 -15 110 1 125 24
290 71 341 96 23 12 56 35 74 51 36 35 76 125 71 160 -3 26 -39 37 -55 16z"/>
<path d="M10445 7050 c-12 -19 14 -37 88 -59 151 -47 168 -53 197 -78 40 -34
39 -64 -9 -159 -72 -143 -192 -267 -331 -340 -72 -38 -90 -59 -67 -81 12 -12
26 -8 92 26 144 75 244 164 321 287 92 148 106 251 42 310 -68 62 -311 130
-333 94z"/>
<path d="M8793 7018 c-5 -7 -24 -38 -42 -69 -73 -131 -189 -194 -511 -279
-209 -55 -221 -61 -196 -95 12 -17 16 -17 87 0 310 75 499 148 583 225 79 73
146 201 115 221 -19 12 -25 11 -36 -3z"/>
<path d="M6550 6753 c-222 -21 -500 -120 -500 -178 0 -25 27 -22 109 12 156
65 447 126 515 109 40 -10 59 -63 54 -147 -4 -82 -24 -109 -77 -109 -20 0
-105 9 -189 20 -85 11 -158 18 -163 14 -18 -10 -9 -34 19 -48 104 -54 423 -47
722 15 139 28 338 83 400 110 64 28 76 48 50 82 -34 44 -236 99 -425 117 -100
9 -430 12 -515 3z m495 -64 c157 -25 313 -57 339 -71 17 -9 17 -11 3 -19 -23
-13 -185 -55 -397 -103 l-186 -42 -11 115 c-6 64 -15 124 -19 135 -7 17 -3 18
67 11 41 -3 133 -15 204 -26z"/>
<path d="M4894 6448 c-11 -16 -8 -33 22 -137 35 -121 33 -211 -7 -321 -17 -47
-45 -121 -61 -165 l-29 -80 7 -195 c13 -351 17 -326 -81 -554 l-17 -39 -22 67
c-27 80 -36 91 -71 82 -50 -13 -148 -200 -236 -454 -100 -288 -128 -484 -95
-652 35 -175 147 -462 242 -623 43 -72 131 -167 155 -167 43 0 32 59 -52 284
-111 295 -138 451 -105 606 16 77 12 95 -20 88 -38 -7 -49 -54 -48 -208 1
-168 13 -231 81 -428 25 -73 43 -135 41 -138 -7 -6 -91 175 -143 310 -85 220
-113 375 -95 524 13 108 58 280 112 426 48 133 143 336 156 336 13 0 22 -25
22 -58 0 -14 8 -34 17 -44 17 -19 14 -26 -62 -173 l-79 -153 13 -57 c25 -110
169 -258 330 -338 l85 -42 145 1 c243 1 453 60 760 213 97 48 207 96 246 105
168 43 176 47 224 91 123 115 196 333 141 423 -11 17 -24 32 -30 32 -19 0 -29
-36 -20 -76 16 -68 11 -100 -29 -180 -44 -88 -99 -157 -140 -179 -15 -7 -58
-21 -95 -30 -84 -19 -165 -51 -372 -148 -292 -137 -478 -188 -689 -191 -105
-1 -126 2 -169 22 -71 32 -163 101 -234 175 -68 72 -97 125 -87 166 3 14 62
139 130 276 174 349 180 377 150 716 l-15 166 54 125 c71 164 86 217 86 303 0
150 -80 351 -116 293z"/>
<path d="M7672 6433 c5 -30 429 -235 952 -460 151 -65 171 -68 164 -23 -2 19
-61 48 -378 189 -206 92 -446 200 -532 239 -160 74 -212 87 -206 55z"/>
<path d="M4055 6339 c-125 -18 -259 -70 -325 -126 -72 -60 -116 -153 -73 -153
9 0 46 29 82 64 95 91 214 146 318 146 109 0 153 -54 132 -161 -10 -52 -10
-62 5 -78 14 -15 15 -21 4 -27 -7 -5 -108 -11 -225 -14 -224 -6 -258 -13 -210
-45 64 -42 300 -39 467 6 133 35 345 124 440 184 41 26 42 28 36 68 -4 23 -12
48 -19 54 -16 16 -154 46 -332 72 -148 22 -203 24 -300 10z m384 -89 c90 -17
173 -36 184 -42 20 -10 20 -11 -4 -29 -26 -20 -310 -144 -355 -155 -26 -7 -27
-5 -20 22 24 105 19 153 -22 238 -2 4 9 5 24 2 16 -3 103 -20 193 -36z"/>
<path d="M7412 6181 c-73 -49 -170 -109 -215 -132 l-82 -43 -115 0 c-186 2
-461 47 -633 105 -92 30 -126 47 -225 109 -44 28 -55 31 -63 19 -14 -23 -11
-30 29 -68 126 -119 517 -221 848 -221 177 0 231 10 319 61 121 69 310 212
310 234 0 40 -40 25 -173 -64z"/>
<path d="M7611 6121 c-29 -10 -57 -25 -62 -32 -26 -42 7 -49 99 -23 111 33
217 -5 446 -160 165 -111 257 -188 392 -329 125 -129 210 -246 304 -414 50
-89 71 -119 88 -121 52 -8 34 42 -85 241 -95 159 -197 289 -309 397 -110 107
-339 281 -460 353 -166 97 -305 127 -413 88z"/>
<path d="M4655 5831 c-19 -33 -61 -83 -92 -111 -119 -109 -440 -230 -611 -230
-26 0 -97 9 -158 21 -114 22 -144 21 -144 -5 0 -20 85 -50 205 -71 86 -16 110
-16 175 -6 107 18 296 83 426 146 90 44 122 66 171 117 70 74 107 139 99 174
-10 39 -32 28 -71 -35z"/>
<path d="M10750 5770 c-30 -56 -41 -787 -15 -1038 42 -400 138 -828 210 -932
46 -67 168 -146 408 -266 217 -109 606 -293 634 -300 31 -8 42 21 17 47 -10
10 -151 81 -312 158 -565 270 -670 336 -724 460 -49 112 -122 454 -158 734
-18 139 -20 216 -20 646 0 412 -2 490 -14 500 -12 10 -17 8 -26 -9z"/>
<path d="M6493 5213 c-3 -8 -2 -23 4 -32 20 -34 187 -150 318 -220 90 -49 141
-82 148 -98 21 -46 266 -190 591 -348 180 -87 200 -99 263 -163 38 -38 101
-121 143 -186 118 -184 157 -236 180 -236 11 0 24 8 27 17 18 47 -72 364 -146
518 -80 164 -130 201 -354 260 -156 42 -436 136 -632 212 -151 59 -243 108
-400 213 -118 79 -134 85 -142 63z m824 -447 c109 -35 257 -81 328 -101 72
-20 148 -47 171 -60 59 -35 122 -108 155 -182 38 -83 91 -241 86 -256 -2 -6
-25 20 -52 59 -149 212 -159 221 -443 360 -207 100 -452 231 -452 240 0 7 1 6
207 -60z"/>
<path d="M8524 4618 c-5 -7 -12 -128 -15 -268 l-6 -255 -56 -215 c-31 -119
-70 -283 -87 -365 -35 -169 -51 -377 -31 -390 7 -4 17 -3 23 3 6 6 25 99 43
209 38 222 57 313 114 535 51 198 63 312 59 541 -2 156 -6 189 -19 203 -14 13
-18 13 -25 2z"/>
<path d="M7305 4039 c-71 -9 -190 -41 -395 -105 -283 -88 -1091 -279 -1355
-319 -178 -28 -334 -8 -595 75 -150 48 -169 50 -184 27 -15 -24 -11 -27 204
-98 102 -34 188 -64 192 -68 4 -3 12 -71 17 -151 11 -163 30 -232 69 -258 34
-22 194 -22 311 1 61 12 137 17 280 17 181 0 204 2 280 25 57 17 114 26 184
28 138 5 192 33 251 131 l21 35 44 -35 c79 -62 99 -59 196 26 47 42 78 61 104
65 20 3 87 22 150 41 62 20 121 38 130 41 28 8 -110 -116 -224 -202 -164 -124
-363 -216 -633 -295 -232 -68 -282 -75 -598 -75 -299 0 -314 -2 -314 -49 -1
-92 -79 -38 -139 96 -75 168 -366 528 -426 528 -49 0 -25 -41 110 -190 122
-136 195 -238 246 -346 56 -119 97 -170 159 -197 25 -11 52 -25 60 -32 30 -24
317 -38 538 -26 111 7 224 16 250 21 102 19 218 80 360 188 414 316 509 391
598 470 222 198 434 470 434 559 0 12 -11 34 -24 50 -23 26 -28 27 -127 29
-57 2 -135 -2 -174 -7z m234 -60 c40 -14 37 -27 -33 -129 -68 -99 -169 -201
-231 -232 -53 -27 -217 -82 -353 -118 -74 -20 -91 -29 -142 -76 -32 -30 -62
-54 -67 -54 -5 0 -34 18 -64 40 -73 55 -92 52 -138 -25 -53 -87 -96 -109 -226
-112 -72 -2 -123 -9 -184 -28 -78 -23 -100 -25 -283 -25 -135 0 -222 -5 -271
-15 -207 -42 -245 -38 -271 25 -17 42 -36 182 -36 263 l0 47 95 0 c274 0 1112
177 1635 345 275 88 486 123 569 94z m-1004 -1005 c-67 -62 -204 -135 -298
-158 -96 -25 -299 -39 -456 -33 -168 6 -253 21 -278 49 -36 40 -6 45 305 51
329 5 377 13 629 96 81 27 150 49 153 50 3 0 -22 -25 -55 -55z"/>
<path d="M7759 3873 c-20 -5 -29 -32 -29 -93 0 -77 -47 -161 -190 -340 -73
-92 -230 -312 -439 -613 -184 -265 -260 -325 -468 -372 -287 -65 -1000 -108
-1161 -70 -103 24 -170 63 -252 145 -41 41 -106 122 -144 180 -96 147 -141
192 -161 160 -6 -10 62 -131 138 -243 56 -85 163 -194 232 -239 32 -21 90 -48
128 -60 66 -20 85 -20 366 -15 540 10 905 60 1066 145 95 50 198 168 385 441
180 262 282 403 399 547 121 151 160 231 168 350 6 74 0 85 -38 77z"/>
<path d="M10951 3519 c-10 -17 -35 -90 -56 -162 -148 -523 -344 -952 -613
-1347 -318 -466 -1016 -1322 -1358 -1665 -113 -114 -224 -196 -351 -259 -78
-39 -86 -46 -77 -71 9 -23 49 -14 149 35 107 52 210 137 390 321 361 370 1033
1201 1330 1644 263 393 438 786 594 1335 36 126 47 178 39 187 -16 20 -27 16
-47 -18z"/>
<path d="M4158 2830 c-371 -200 -589 -291 -873 -365 -244 -64 -968 -166 -1620
-230 -671 -65 -779 -91 -905 -211 -78 -74 -101 -124 -150 -326 -55 -228 -90
-312 -400 -963 -152 -319 -210 -452 -210 -480 0 -9 9 -15 21 -15 22 0 90 133
390 768 159 336 195 428 249 631 52 193 53 198 83 257 81 159 251 217 767 259
196 16 214 18 605 65 405 49 770 99 925 126 353 60 617 152 987 344 247 128
286 157 243 180 -15 8 -37 0 -112 -40z"/>
<path d="M5799 770 c-17 -11 -16 -13 102 -184 98 -141 243 -291 345 -358 105
-69 295 -161 306 -150 22 22 0 48 -72 88 -275 152 -344 212 -523 451 -110 147
-132 168 -158 153z"/>
</g>
</svg>
