<?xml version="1.0" standalone="no"?>
<!DOCTYPE svg PUBLIC "-//W3C//DTD SVG 20010904//EN"
 "http://www.w3.org/TR/2001/REC-SVG-20010904/DTD/svg10.dtd">
<svg version="1.0" xmlns="http://www.w3.org/2000/svg"
 width="1018.000000pt" height="1280.000000pt" viewBox="0 0 1018.000000 1280.000000"
 preserveAspectRatio="xMidYMid meet">
<metadata>
Created by potrace 1.15, written by Peter Selinger 2001-2017
</metadata>
<g transform="translate(0.000000,1280.000000) scale(0.100000,-0.100000)"
fill="#f9be70" stroke="none">
<path d="M4971 12770 c-49 -36 -124 -134 -158 -207 -64 -138 -28 -372 87 -560
31 -50 48 -88 43 -96 -4 -6 -35 -48 -69 -92 -67 -88 -115 -168 -137 -230 -8
-22 -45 -107 -83 -190 l-69 -150 -2 -108 c-2 -133 1 -128 -185 -324 -192 -202
-193 -202 -314 -518 -40 -104 -98 -252 -129 -327 -31 -76 -69 -188 -84 -250
-36 -145 -62 -193 -160 -301 -44 -48 -89 -108 -101 -133 -60 -124 -86 -352
-56 -493 28 -134 78 -217 179 -296 l37 -30 -377 -384 c-395 -401 -512 -511
-547 -511 -45 0 -239 159 -348 285 -86 100 -121 177 -126 282 -6 103 0 111
116 164 112 52 138 72 167 130 32 62 75 238 75 305 0 62 -16 80 -85 91 -41 7
-51 12 -53 31 -3 18 5 26 43 42 90 38 225 147 225 180 0 25 -52 78 -85 86 -44
11 -122 -12 -252 -75 -336 -163 -512 -345 -575 -593 -17 -68 -20 -101 -15
-180 10 -162 59 -289 297 -773 134 -272 175 -335 272 -418 61 -52 294 -197
317 -197 30 0 223 116 325 195 112 86 199 163 432 380 123 114 139 126 142
106 5 -34 -37 -146 -119 -317 -109 -229 -108 -222 -102 -420 4 -117 0 -236
-12 -384 -20 -246 -16 -340 19 -461 76 -261 336 -753 517 -979 48 -59 92 -116
98 -128 15 -28 14 -76 -4 -142 -22 -82 -19 -110 20 -170 40 -62 40 -59 20
-124 -18 -60 -16 -79 46 -326 60 -242 91 -414 118 -640 33 -275 41 -396 30
-428 -8 -23 -34 -40 -161 -102 -83 -41 -186 -100 -228 -131 -157 -115 -323
-303 -487 -549 -50 -74 -118 -171 -153 -215 -93 -118 -276 -294 -371 -357
-300 -199 -422 -274 -481 -298 -130 -53 -494 -281 -538 -337 -12 -16 -20 -41
-20 -64 0 -51 37 -87 131 -123 41 -16 178 -78 304 -139 127 -60 264 -125 305
-144 57 -26 71 -37 60 -44 -18 -12 -176 -3 -277 16 -97 19 -147 42 -216 104
-32 28 -70 54 -84 57 -14 4 -74 4 -132 1 l-106 -6 27 20 c16 12 28 27 28 34 0
14 -48 31 -105 37 -29 3 -30 4 -28 53 2 58 -5 65 -67 65 -62 0 -78 12 -46 34
14 9 26 22 26 28 0 6 -22 33 -49 59 -65 63 -92 66 -356 45 -246 -19 -445 -22
-428 -5 26 26 465 79 654 79 76 0 100 4 123 19 l29 19 -44 9 c-28 6 -45 14
-47 25 -4 21 42 34 149 42 67 5 187 36 317 82 72 26 86 92 22 105 -77 16 -274
29 -440 29 -252 0 -267 24 -34 55 154 20 286 20 326 -1 28 -15 34 -14 92 7 49
19 76 23 136 19 185 -9 280 1 325 34 11 8 16 18 12 23 -24 23 -551 10 -862
-22 -171 -18 -177 -18 -141 1 58 32 143 55 275 74 317 45 629 53 824 19 130
-22 172 -22 172 0 0 21 -60 38 -217 61 -139 21 -178 32 -178 49 0 16 70 23
305 31 126 4 239 11 250 16 11 4 36 20 55 36 20 15 59 35 87 43 28 8 62 24 75
34 l23 20 -44 45 -44 45 26 10 c15 6 27 17 27 25 0 27 -28 39 -82 34 -40 -4
-57 -11 -75 -32 -12 -14 -35 -31 -50 -37 -15 -6 -136 -15 -268 -20 -246 -8
-429 -27 -547 -55 -72 -17 -103 -39 -77 -55 21 -13 58 -11 202 13 110 18 175
22 394 22 184 1 265 -2 273 -10 25 -25 -99 -48 -375 -69 -104 -8 -207 -19
-227 -25 -21 -6 -58 -28 -83 -50 -58 -50 -84 -57 -295 -75 -206 -18 -196 -17
-417 -51 -95 -14 -179 -24 -188 -21 -54 21 30 54 334 132 203 52 276 77 276
96 0 26 -101 11 -373 -55 -306 -74 -446 -103 -559 -112 -80 -7 -107 2 -80 24
19 16 213 73 517 151 151 39 344 89 429 111 186 49 371 90 408 90 16 0 39 7
53 15 75 44 88 46 338 55 237 9 331 22 339 46 7 20 -48 34 -132 34 -187 0
-596 -55 -663 -89 -21 -10 -49 -17 -62 -14 -14 2 -95 -14 -180 -37 -252 -66
-477 -118 -605 -140 -156 -27 -188 -36 -210 -60 -40 -44 -268 -92 -417 -88
l-93 3 80 27 c96 32 155 45 255 57 81 9 115 22 200 77 30 19 100 49 155 66
120 37 125 39 96 50 -14 5 -21 15 -19 25 9 45 192 89 333 80 103 -7 140 3 201
51 70 55 144 68 584 102 146 11 279 23 295 26 78 14 125 27 125 34 0 29 -275
20 -685 -21 -254 -26 -408 -56 -637 -124 -215 -65 -401 -105 -486 -105 -51 0
-65 4 -82 23 -20 21 -30 22 -228 27 -114 3 -215 10 -225 14 -24 11 -18 38 13
53 53 27 343 6 451 -32 73 -26 140 -29 225 -10 105 23 182 58 221 100 18 19
42 35 53 35 13 0 40 19 65 44 l42 44 84 -5 c61 -4 111 1 184 15 121 25 236 37
544 58 243 16 294 25 272 47 -25 25 -242 20 -751 -19 -328 -25 -392 -38 -449
-89 -42 -38 -125 -79 -204 -102 -60 -17 -346 -29 -429 -19 -31 4 -64 13 -74
20 -17 13 -16 14 5 25 40 22 183 41 354 48 92 3 170 10 173 14 2 5 -1 18 -8
29 -18 29 2 42 105 70 45 12 89 26 97 32 29 18 -174 -1 -333 -31 -93 -18 -191
-31 -236 -31 -113 0 -226 37 -207 69 13 20 82 32 275 46 211 16 231 19 231 40
0 33 -127 74 -230 75 -84 1 -134 18 -138 47 -2 12 -9 23 -16 26 -16 6 -355
-29 -424 -44 -29 -7 -57 -18 -62 -24 -18 -22 52 -27 198 -15 153 13 207 7 207
-26 0 -14 -22 -30 -83 -61 -94 -49 -143 -54 -194 -23 -18 11 -40 20 -49 20
-39 0 -71 -78 -49 -120 11 -21 16 -22 92 -15 93 8 155 -5 189 -41 19 -20 21
-29 13 -51 -13 -38 -51 -50 -117 -35 -140 32 -167 36 -178 25 -8 -8 -1 -18 25
-35 76 -49 55 -87 -57 -98 -81 -8 -97 -14 -97 -35 0 -24 56 -45 156 -60 52 -8
103 -19 114 -25 37 -20 154 -41 274 -50 131 -9 187 -23 168 -42 -19 -19 -198
-28 -371 -17 -412 24 -421 24 -421 0 0 -19 -5 -21 -53 -21 -52 0 -77 -12 -77
-37 0 -25 66 -46 217 -69 256 -40 290 -72 89 -85 -116 -8 -191 -22 -201 -39
-8 -13 19 -18 150 -25 66 -4 129 -12 139 -17 19 -10 19 -11 1 -25 -27 -19 -73
-30 -204 -48 -168 -24 -193 -44 -79 -64 113 -19 317 -24 398 -10 98 17 204 17
260 -1 l45 -13 -75 -18 c-41 -10 -127 -26 -190 -35 -177 -26 -280 -73 -177
-82 20 -2 37 -6 37 -10 0 -4 -21 -18 -48 -32 -26 -14 -47 -32 -47 -40 0 -22
82 -25 146 -6 66 20 115 20 122 2 9 -22 -14 -35 -69 -42 -56 -6 -104 -23 -104
-35 0 -16 27 -23 123 -30 72 -5 103 -11 115 -23 23 -23 8 -31 -87 -45 -72 -11
-120 -33 -129 -59 -5 -17 41 -32 99 -32 27 0 49 -3 49 -7 0 -3 -18 -21 -40
-40 -22 -19 -40 -38 -40 -43 0 -14 61 -30 115 -30 32 0 57 -5 64 -14 17 -20
-7 -35 -73 -46 -88 -14 -90 -18 -53 -102 38 -84 34 -83 251 -84 127 -1 211 -6
251 -16 l60 -14 -120 -6 c-117 -6 -185 -21 -185 -39 0 -15 58 -36 144 -54 54
-12 86 -24 100 -39 28 -30 68 -39 371 -81 143 -19 346 -49 450 -66 351 -56
468 -69 850 -94 127 -8 272 -22 324 -30 203 -33 352 -103 516 -241 103 -86
192 -144 222 -144 36 0 63 34 63 81 0 49 -9 66 -75 149 -29 36 -89 120 -133
186 -45 67 -114 162 -155 210 -99 119 -270 283 -332 318 -69 40 -115 76 -115
90 0 7 -32 50 -71 97 -92 109 -122 171 -109 221 14 48 87 146 136 181 138 97
223 163 381 295 98 82 216 177 263 212 125 92 546 371 611 404 64 32 314 255
381 339 88 112 100 197 58 437 -39 227 -38 339 10 723 38 299 62 358 220 518
143 145 233 177 442 158 256 -24 367 -83 626 -333 80 -77 161 -146 189 -160
55 -28 118 -83 328 -282 169 -160 290 -266 357 -312 55 -38 88 -99 88 -163 0
-46 -16 -82 -64 -149 -38 -53 -52 -119 -72 -335 -26 -285 -15 -410 62 -720 37
-148 37 -252 1 -398 -61 -243 -229 -630 -307 -703 -23 -21 -73 -91 -113 -154
-86 -140 -132 -190 -175 -190 -28 0 -37 6 -69 44 -16 19 -127 43 -238 51 -102
8 -378 -8 -565 -32 -148 -20 -198 -20 -230 -3 -23 13 -24 13 -4 20 11 5 71 13
134 19 418 43 470 57 470 126 0 45 -20 55 -110 55 -61 0 -74 -3 -95 -24 -23
-23 -30 -24 -232 -30 -114 -4 -229 -8 -255 -9 -26 -1 -49 3 -50 8 -5 17 130
45 270 55 74 6 149 17 167 24 35 15 55 42 48 64 -7 18 -100 15 -204 -8 -164
-37 -279 -43 -563 -30 -189 8 -295 8 -384 1 -119 -11 -192 -30 -192 -50 0 -16
95 -31 193 -31 51 0 99 -5 107 -10 15 -9 1 -17 -113 -64 -91 -37 -7 -60 203
-53 85 3 196 11 247 18 129 18 142 -2 23 -37 -95 -28 -151 -55 -148 -73 4 -17
12 -17 174 -9 70 3 72 2 112 -34 80 -72 162 -83 782 -103 512 -16 740 -27
1180 -55 168 -11 427 -27 575 -35 471 -26 798 -63 970 -110 97 -26 135 -24
135 7 0 63 -74 130 -313 284 -237 153 -307 188 -426 214 -232 49 -264 59 -334
106 -38 25 -131 79 -207 119 -154 81 -211 118 -254 163 l-28 30 56 199 c84
295 249 960 296 1190 22 111 47 221 55 244 8 23 15 67 15 98 0 57 -26 264 -54
446 -29 177 -32 182 -416 570 -527 533 -600 627 -600 771 0 78 19 108 185 284
70 74 155 171 189 215 229 300 377 712 345 965 -16 136 -52 205 -167 322 l-75
77 29 41 c59 82 67 116 40 169 -22 42 -95 104 -166 142 -80 42 -250 207 -340
329 -70 94 -135 222 -126 245 8 22 76 19 186 -10 297 -77 396 -106 495 -147
197 -81 344 -122 590 -164 257 -45 298 -41 721 57 262 61 317 77 468 144 173
77 209 85 451 95 230 9 281 19 304 62 12 21 13 36 5 78 -9 40 -8 53 2 57 7 2
53 -5 102 -18 135 -33 187 -15 193 66 4 59 -1 75 -26 87 -43 19 -32 45 25 57
28 6 68 11 88 11 48 0 100 32 108 67 10 40 -22 92 -79 127 -42 26 -61 30 -137
34 -206 10 -546 -85 -774 -216 -177 -101 -268 -131 -517 -172 -248 -40 -384
-52 -609 -54 -143 -2 -235 -7 -253 -14 -33 -14 -49 -7 -91 37 -38 39 -137 78
-364 141 -379 105 -678 223 -849 337 -57 37 -103 102 -103 144 0 14 21 58 47
99 95 154 136 289 135 454 -1 165 -36 280 -96 317 -42 26 -64 24 -129 -11 -31
-16 -59 -30 -62 -30 -3 0 -3 71 1 158 13 311 -60 622 -227 970 -81 171 -167
305 -273 427 -132 152 -131 150 -132 284 0 88 -6 135 -23 195 -27 99 -93 235
-162 341 -53 79 -194 229 -297 316 l-53 44 36 105 c71 209 80 332 35 453 -32
84 -145 237 -175 237 -7 0 -31 -14 -54 -30z m109 -486 c24 -62 4 -138 -43
-163 -40 -21 -57 -8 -57 43 0 53 14 93 42 124 28 29 46 28 58 -4z m75 -433
c92 -54 134 -121 75 -121 -25 0 -140 110 -140 134 0 22 7 20 65 -13z m147
-211 c-12 -10 -54 -26 -92 -34 -74 -17 -235 -22 -244 -7 -12 19 23 29 124 35
58 4 123 11 145 16 22 4 51 8 65 9 l25 0 -23 -19z m76 -129 c79 -40 131 -133
131 -236 1 -44 -5 -68 -19 -90 -26 -40 -25 -51 10 -91 16 -19 34 -53 40 -76
18 -69 46 -118 121 -213 247 -313 427 -703 508 -1101 47 -228 40 -246 -40
-103 -26 46 -62 111 -81 143 -94 168 -249 275 -548 377 -154 53 -214 55 -375
15 -238 -58 -315 -89 -499 -200 -169 -102 -311 -204 -410 -295 -94 -86 -150
-126 -165 -116 -30 18 61 111 254 262 96 75 302 217 398 274 32 18 68 44 79
56 l21 23 -25 0 c-53 0 -223 -104 -505 -308 -162 -117 -247 -176 -280 -196
-24 -13 -13 13 20 50 111 128 483 410 709 538 46 26 76 60 61 69 -42 23 -418
-218 -594 -380 -79 -73 -119 -91 -119 -54 0 22 71 110 145 181 26 25 61 63 78
84 l31 39 -32 -6 c-26 -5 -32 -3 -32 10 0 47 233 210 446 313 92 45 144 75
144 85 0 8 -8 15 -17 15 -51 -1 -352 -152 -498 -250 -33 -22 -70 -40 -83 -40
-23 0 -23 0 -5 31 53 92 440 327 594 360 30 7 61 18 69 26 12 11 12 15 -3 30
-17 17 -22 17 -100 -11 -99 -35 -260 -110 -341 -160 -65 -39 -96 -46 -96 -19
0 48 171 156 343 218 42 15 77 32 77 36 0 5 -28 9 -62 9 -79 0 -99 11 -75 38
43 47 311 140 470 163 72 11 98 10 183 -5 102 -18 128 -16 138 11 15 39 -18
52 -277 108 -43 10 -76 19 -73 22 2 3 35 8 72 13 66 8 103 28 90 49 -4 6 -20
11 -36 11 -45 0 -82 18 -78 38 3 14 18 18 103 22 77 4 100 8 100 19 0 14 -24
23 -123 50 -74 20 -68 59 10 68 30 3 59 -2 96 -16 40 -16 58 -19 73 -11 55 30
-20 71 -153 85 -67 7 -80 21 -47 48 31 25 116 19 177 -12z m-473 -391 c8 -13
-68 -50 -105 -50 -41 0 -40 27 3 45 37 16 93 19 102 5z m599 -1140 c124 -43
327 -165 427 -257 69 -64 112 -129 133 -202 16 -56 22 -151 9 -151 -5 0 -28
16 -52 35 -24 19 -62 40 -83 46 -185 49 -370 -232 -303 -459 19 -64 90 -170
132 -198 40 -26 107 -38 171 -28 39 5 55 15 92 53 52 54 97 132 113 199 11 43
15 47 61 64 34 12 70 37 111 78 88 87 119 79 149 -36 49 -189 -26 -528 -124
-562 -54 -19 -115 37 -125 116 -14 106 -19 117 -48 106 -40 -15 -47 -90 -17
-188 16 -50 33 -79 74 -123 62 -68 83 -105 96 -171 12 -63 -1 -117 -37 -154
-61 -64 -308 -160 -495 -192 -137 -24 -353 -30 -618 -17 -406 21 -501 37 -723
122 -70 27 -152 56 -182 64 -65 17 -94 36 -156 102 -104 111 -118 167 -119
468 0 99 -4 186 -8 193 -6 9 -21 -2 -55 -38 -25 -27 -51 -50 -56 -50 -15 0
-43 103 -39 142 2 26 10 36 36 49 57 26 66 62 32 130 -20 37 -70 79 -97 79
-20 0 -43 -30 -43 -58 0 -15 10 -50 21 -78 l22 -51 -27 -56 c-14 -31 -26 -61
-26 -68 0 -7 19 -53 42 -103 37 -81 42 -100 43 -166 0 -92 -17 -102 -72 -43
-103 108 -146 309 -108 501 18 90 87 236 125 264 37 27 55 16 101 -64 34 -58
49 -73 86 -90 55 -24 101 -19 173 17 86 43 167 122 304 293 73 92 158 190 187
217 63 59 122 105 135 105 5 0 63 -29 129 -65 66 -36 126 -65 133 -65 7 0 12
15 12 41 0 34 -6 47 -33 73 -19 17 -49 40 -67 51 -47 28 -60 53 -37 69 18 14
169 49 312 72 101 17 213 11 289 -16z m-1458 -634 c-17 -58 -37 -82 -61 -72
-31 11 -10 85 41 146 l29 34 3 -27 c2 -15 -4 -51 -12 -81z m1899 4 c71 -44
118 -144 119 -250 1 -66 -4 -85 -32 -143 -44 -89 -90 -127 -155 -127 -38 0
-53 5 -72 25 -33 33 -32 44 12 81 37 31 38 34 38 97 0 51 -5 72 -21 94 -20 25
-27 28 -73 25 -60 -3 -61 0 -30 84 12 33 38 73 60 95 33 33 46 39 80 39 24 0
55 -8 74 -20z m-3355 -327 c0 -5 -27 -39 -60 -76 -33 -38 -67 -82 -76 -98 -37
-73 6 -116 125 -126 39 -3 71 -9 71 -12 0 -3 -21 -15 -48 -25 -58 -23 -112
-62 -112 -81 0 -7 11 -22 25 -33 21 -17 22 -21 9 -26 -9 -3 -27 -6 -40 -6 -13
0 -24 -2 -24 -5 0 -3 17 -21 38 -40 36 -35 37 -35 17 -51 -11 -9 -67 -39 -125
-67 -106 -52 -169 -63 -227 -43 -35 13 -38 -28 -14 -162 26 -147 26 -162 2
-162 -21 0 -36 31 -51 105 -14 70 -25 458 -14 477 16 28 312 306 396 373 76
60 108 77 108 58z m-335 -850 c3 -10 10 -67 15 -128 10 -125 18 -171 54 -304
14 -52 23 -97 20 -100 -11 -11 -64 63 -84 117 -38 100 -65 361 -44 416 8 21
30 20 39 -1z m4368 -59 c67 -31 162 -71 210 -89 100 -38 137 -59 137 -79 0
-23 -56 -34 -200 -40 -74 -3 -160 -8 -190 -12 l-55 -5 30 26 c17 15 50 36 75
48 31 15 45 29 45 42 0 18 -6 20 -57 17 -46 -3 -58 0 -66 15 -10 16 -14 17
-44 5 -67 -27 -69 -27 -62 4 4 23 0 34 -20 53 -31 29 -32 38 -9 64 25 27 62
18 206 -49z m3251 10 c43 -17 2 -54 -59 -54 -43 0 -204 -52 -255 -82 -125 -75
-138 -142 -39 -213 88 -63 64 -75 -145 -74 -120 0 -230 9 -313 25 -45 9 -165
-29 -206 -65 -41 -37 -131 -61 -251 -68 -90 -6 -100 -9 -212 -67 -54 -27 -74
-32 -74 -18 0 11 145 126 222 177 66 43 88 41 88 -8 0 -19 3 -36 6 -40 4 -3
27 9 52 29 25 19 63 39 86 45 97 26 161 56 326 153 221 131 313 177 420 210
140 43 310 67 354 50z m-60 -180 c19 -19 21 -50 4 -56 -16 -6 -178 33 -178 43
0 9 77 26 122 28 21 1 43 -6 52 -15z m-6240 -10 c24 -9 19 -30 -12 -53 -43
-30 -80 -37 -88 -16 -16 41 52 87 100 69z m3584 -30 c26 -7 29 -30 5 -42 -10
-5 -65 -12 -123 -16 -58 -4 -122 -11 -143 -15 -53 -13 -46 3 16 29 93 41 190
58 245 44z m242 -78 c0 -19 -102 -63 -189 -81 -40 -8 -118 -15 -174 -14 l-102
0 80 25 c240 75 385 101 385 70z m99 -59 c-53 -24 -60 -36 -53 -91 6 -48 5
-50 -11 -35 -9 9 -19 34 -22 56 -7 54 20 83 75 82 36 -1 37 -1 11 -12z m-2778
-31 c90 -16 126 -33 110 -49 -22 -22 -239 22 -249 51 -5 16 41 15 139 -2z
m1365 -31 c-42 -32 -329 -74 -391 -57 -28 8 -29 9 -10 19 21 11 153 39 215 46
19 2 73 4 120 5 75 1 83 0 66 -13z m188 -34 c-42 -71 -194 -129 -194 -75 0 8
11 19 25 24 54 21 72 31 119 65 57 41 79 35 50 -14z m1051 37 c-7 -18 -68 -58
-88 -58 -28 0 -19 29 16 50 36 23 79 27 72 8z m-4850 -18 c16 -18 16 -20 1
-26 -24 -9 -46 3 -46 26 0 26 22 26 45 0z m5360 -46 c12 -12 13 -19 4 -30 -16
-19 -63 -18 -80 2 -11 14 -10 18 6 30 25 18 50 18 70 -2z m-2515 -21 c22 -21
36 -50 55 -118 74 -261 84 -559 22 -685 -19 -39 -30 -48 -80 -68 -183 -72
-609 -129 -903 -120 -155 5 -167 8 -528 147 -179 69 -226 94 -226 122 0 29 28
24 132 -26 112 -54 198 -76 428 -111 240 -36 309 -40 349 -20 33 18 41 40 16
50 -8 3 -129 22 -268 41 -274 39 -433 73 -500 106 -46 23 -99 68 -92 79 2 3
46 -4 97 -17 123 -31 426 -87 613 -113 197 -28 211 -33 236 -81 11 -22 27 -43
36 -46 19 -7 53 30 53 58 0 30 39 46 122 52 78 5 135 24 130 42 -4 18 -182 12
-243 -9 -31 -11 -64 -16 -73 -13 -28 11 -18 42 22 68 53 35 49 54 -13 55 -90
2 -92 4 -44 58 17 20 28 40 24 46 -3 5 -29 17 -58 25 -73 21 -82 28 -61 46 9
7 44 26 77 41 71 31 69 32 -78 45 l-90 9 131 66 c238 121 238 121 405 124 158
2 201 8 219 28 16 20 -17 26 -145 26 -60 0 -141 5 -180 10 -127 19 -106 42 51
58 67 7 114 17 140 31 30 16 57 21 116 21 71 0 80 -2 108 -27z m2980 14 c0 -7
-13 -26 -30 -42 l-29 -28 -91 38 c-49 21 -90 39 -90 41 0 2 54 4 120 4 92 0
120 -3 120 -13z m-3606 -26 c9 -14 -21 -32 -63 -38 -42 -6 -219 23 -235 38 -6
5 55 9 141 9 84 0 154 -4 157 -9z m1281 -31 c10 -16 -43 -42 -104 -49 -33 -4
-67 -13 -76 -21 -16 -13 -16 -15 1 -27 10 -7 43 -13 73 -13 85 0 104 -8 96
-38 -6 -23 -5 -24 31 -17 l37 6 -6 -44 c-8 -60 8 -75 63 -58 59 18 104 69 129
150 30 96 71 129 83 66 2 -12 16 -24 34 -30 55 -18 91 -64 78 -100 -8 -19 -32
-19 -79 1 -29 12 -44 13 -61 5 -27 -12 -114 -126 -114 -148 0 -26 78 -10 177
36 95 43 143 52 143 26 0 -26 -46 -64 -114 -96 -77 -36 -94 -52 -76 -74 24
-29 77 -12 217 71 l31 18 109 -104 c120 -116 199 -174 268 -195 88 -26 97 -57
35 -117 -53 -49 -224 -132 -320 -153 -98 -23 -358 -31 -474 -16 -134 18 -184
41 -255 116 -154 165 -413 619 -415 729 -1 48 3 49 190 70 155 17 291 20 299
6z m1920 -30 c7 -12 -30 -50 -50 -50 -21 0 -37 34 -23 48 14 14 64 16 73 2z
m-3267 -87 c3 -27 -2 -36 -28 -51 -56 -35 -292 -40 -337 -7 -15 11 -14 14 9
38 44 44 107 46 204 6 29 -12 35 -10 75 20 53 38 73 37 77 -6z m-508 -43 c0
-5 -16 -10 -35 -10 -19 0 -35 5 -35 10 0 6 16 10 35 10 19 0 35 -4 35 -10z
m-165 -106 c19 -19 7 -38 -21 -32 -23 4 -32 48 -10 48 8 0 22 -7 31 -16z m161
-38 c17 -13 17 -15 3 -21 -32 -12 -94 -1 -97 18 -3 14 4 17 35 17 22 0 48 -6
59 -14z m-348 -38 c17 -17 15 -48 -3 -48 -17 0 -39 36 -30 50 8 13 18 13 33
-2z m507 -8 c-3 -5 -19 -10 -36 -10 -16 0 -29 5 -29 10 0 6 16 10 36 10 21 0
33 -4 29 -10z m-324 -20 c27 -15 24 -39 -7 -50 -47 -18 -88 25 -46 49 22 13
29 13 53 1z m293 -145 c13 -34 -69 -80 -99 -55 -19 16 -19 29 2 52 20 23 88
25 97 3z m255 1 c10 -12 8 -17 -8 -25 -25 -14 -81 -14 -101 -1 -13 9 -12 12 4
25 25 19 90 19 105 1z m91 -105 c0 -27 -37 -51 -77 -51 -53 0 -52 26 2 54 42
22 75 21 75 -3z m1064 -178 c30 -48 68 -82 126 -115 25 -14 86 -59 135 -99
101 -81 145 -104 243 -124 87 -19 184 -19 301 0 120 20 217 52 360 121 63 30
120 53 127 50 22 -8 111 -154 133 -217 32 -91 38 -231 17 -339 -22 -107 -59
-205 -150 -395 -116 -240 -342 -537 -477 -624 -78 -51 -103 -72 -124 -105 -18
-28 -18 -29 0 -42 10 -8 29 -14 42 -14 25 0 46 -30 37 -54 -16 -41 -164 -50
-223 -13 -35 22 -41 22 -306 19 -269 -2 -270 -2 -247 17 13 11 44 23 70 26
100 13 152 27 174 46 l23 20 -76 -7 c-88 -7 -95 -2 -79 55 13 48 51 96 93 118
26 13 28 17 14 25 -25 13 -21 36 18 120 70 152 125 403 145 660 24 301 -23
489 -147 598 -63 56 -77 20 -42 -106 19 -70 22 -111 26 -358 4 -175 1 -325 -7
-404 -13 -140 -54 -316 -100 -425 -39 -91 -138 -238 -173 -255 -16 -8 -54 -12
-99 -10 l-73 3 90 34 c50 19 95 39 100 44 6 5 -31 8 -97 5 -121 -4 -147 -16
-183 -81 -18 -34 -19 -38 -4 -53 10 -9 41 -18 78 -21 75 -7 92 -23 65 -59 -28
-38 -121 -91 -189 -109 -35 -9 -138 -20 -245 -25 -102 -4 -192 -11 -200 -13
-8 -3 -28 -8 -44 -12 -60 -13 -6 -28 124 -35 71 -4 132 -9 136 -12 3 -3 -25
-16 -62 -28 -37 -13 -79 -34 -93 -48 -41 -41 -217 -92 -371 -107 -90 -9 -100
-13 -76 -31 28 -20 125 -18 236 6 51 12 112 20 134 18 39 -3 41 -4 38 -33 -2
-16 -23 -73 -46 -125 -53 -116 -72 -188 -92 -350 -45 -366 -50 -387 -103 -382
-49 4 -128 41 -146 68 -18 28 -20 85 -3 102 7 7 36 12 66 12 62 0 61 10 -6 44
-70 36 -92 64 -90 114 1 30 -5 51 -20 72 -12 16 -22 34 -22 39 0 6 37 7 94 4
62 -4 95 -2 100 5 11 18 -24 29 -101 34 -76 6 -103 18 -103 48 0 26 19 30 138
30 175 0 173 26 -3 49 -49 7 -101 18 -115 24 -30 15 -62 71 -96 169 -30 86
-28 126 11 218 l28 65 -43 79 -42 79 40 36 c64 57 61 81 -22 170 -82 87 -93
108 -72 130 14 14 54 17 269 22 235 5 347 18 347 40 0 12 -123 29 -233 32 -59
2 -112 8 -118 14 -8 8 -4 23 11 53 12 23 20 51 18 63 -3 20 -10 22 -65 25 -34
2 -76 -1 -94 -5 -32 -9 -32 -9 39 -37 39 -16 70 -32 67 -35 -9 -15 -98 -53
-149 -63 -73 -16 -178 1 -212 33 -22 21 -23 24 -8 40 8 9 27 20 41 24 34 8 20
19 -48 39 -94 26 -132 76 -58 76 16 0 29 4 29 10 0 5 -31 27 -68 49 -101 59
-182 159 -182 225 0 38 20 36 65 -9 47 -48 169 -103 246 -112 61 -7 63 4 7 48
l-41 33 83 12 c58 8 88 18 102 32 l21 20 -30 15 c-16 9 -78 20 -141 25 -116 9
-137 17 -126 45 11 28 68 39 167 32 77 -6 95 -4 106 8 9 12 10 21 1 36 -13 26
-33 37 -117 62 -38 12 -99 35 -138 51 -38 17 -122 51 -185 75 -139 53 -172 81
-195 168 -26 102 -14 239 25 287 17 21 20 21 34 8 9 -9 18 -31 20 -50 5 -41
35 -68 123 -107 34 -15 63 -31 63 -34 0 -4 -29 -4 -65 -1 -80 6 -85 -8 -16
-42 155 -79 459 -157 620 -159 179 -3 125 41 -84 68 -63 8 -167 29 -232 45
-119 31 -160 48 -88 36 22 -3 125 -9 229 -13 160 -5 188 -4 184 8 -2 8 -29 24
-59 36 l-54 22 80 1 c44 1 204 5 355 10 325 9 336 12 562 127 195 99 268 164
268 238 0 34 17 65 35 65 8 0 26 -17 39 -37z m-1719 -270 c96 -30 225 -90 225
-104 0 -33 -386 93 -398 130 -6 18 65 8 173 -26z m-110 -498 c128 -85 142
-135 50 -171 l-46 -17 -37 30 c-50 40 -90 114 -127 231 l-7 23 44 -21 c23 -12
79 -46 123 -75z m2598 -1310 c10 -4 16 -13 14 -19 -3 -7 -46 -11 -133 -11
-130 1 -220 16 -208 37 7 12 298 6 327 -7z m-354 -69 c55 -24 116 -34 318 -55
118 -13 168 -35 250 -113 137 -131 437 -505 431 -537 -2 -12 -18 -17 -65 -19
-50 -2 -77 3 -150 32 -48 19 -105 37 -126 41 -47 9 -83 37 -72 55 6 10 30 11
99 7 50 -3 98 -2 105 3 27 16 -6 37 -67 44 -69 8 -109 30 -91 52 6 8 22 14 36
14 26 0 42 25 25 42 -6 6 -49 14 -97 19 -47 4 -93 13 -101 20 -22 18 -1 36 52
42 85 9 81 33 -14 94 -30 19 -63 50 -73 68 -24 40 -53 51 -251 95 -195 44
-298 82 -298 110 0 16 27 12 89 -14z m296 -282 c89 -23 91 -34 6 -34 -81 0
-155 15 -172 36 -10 12 -2 14 48 14 32 0 86 -7 118 -16z m851 -515 c143 -101
194 -161 214 -252 23 -104 67 -492 58 -509 -10 -21 -78 -24 -207 -7 -132 16
-186 48 -148 87 14 14 27 14 102 4 140 -18 171 8 88 75 -75 61 -103 95 -103
125 0 34 9 35 45 6 59 -46 85 32 41 125 -13 28 -27 71 -31 93 -10 63 -34 79
-157 103 -119 22 -159 38 -137 52 8 5 34 9 59 9 49 0 76 12 66 29 -12 19 -79
31 -175 31 -52 0 -92 3 -88 6 14 14 216 63 263 63 44 1 59 -5 110 -40z m-2570
-360 c8 -6 14 -24 14 -40 0 -25 -4 -29 -28 -29 -79 0 -186 57 -152 81 19 13
147 4 166 -12z m14 -119 c23 -12 35 -51 51 -165 18 -135 17 -273 -4 -311 -23
-43 -91 -100 -144 -120 -38 -15 -58 -16 -136 -8 -108 12 -137 8 -137 -16 0
-21 22 -40 73 -63 45 -20 53 -62 20 -99 -25 -28 -50 -21 -112 30 -32 27 -99
75 -149 107 -51 31 -92 61 -92 65 0 3 46 28 101 55 117 56 203 72 216 39 9
-27 21 -32 78 -39 98 -13 163 24 200 112 19 45 19 64 -1 107 -14 29 -15 45 -6
107 7 45 7 79 2 90 -6 9 -33 25 -62 34 -29 10 -59 23 -67 30 -18 18 -8 42 21
48 45 8 130 7 148 -3z m-131 -414 c16 -20 3 -46 -24 -46 -27 0 -36 17 -23 43
10 20 31 22 47 3z m2895 -262 c18 -18 19 -10 -36 -209 -35 -128 -87 -335 -154
-620 -29 -119 -51 -182 -61 -172 -3 4 0 75 7 158 9 107 11 232 7 429 -8 314
-13 291 70 305 49 8 90 36 79 53 -4 8 -37 12 -87 12 -60 0 -80 3 -77 13 13 38
219 64 252 31z m-3392 -246 c31 -17 59 -36 62 -43 6 -15 -41 -56 -164 -140
-131 -91 -377 -279 -565 -432 -305 -248 -374 -298 -397 -291 -18 6 38 63 175
180 160 135 359 333 450 447 83 105 121 132 187 139 27 2 50 7 50 11 0 3 -16
16 -35 29 -19 12 -35 29 -35 37 0 23 70 36 167 30 86 -6 87 -6 58 11 -60 33
-76 45 -70 54 9 14 51 2 117 -32z m-3602 -348 c0 -5 -16 -10 -36 -10 -21 0
-33 4 -29 10 3 6 19 10 36 10 16 0 29 -4 29 -10z m399 -29 c22 -14 -4 -41 -38
-41 -26 0 -111 34 -111 45 0 9 134 5 149 -4z m11 -250 c0 -14 -34 -23 -54 -15
-14 5 -15 9 -4 15 18 12 58 11 58 0z m475 -151 c-33 -53 -507 -166 -522 -124
-8 23 159 79 382 127 42 9 146 7 140 -3z m5835 -142 c0 -48 -32 -128 -51 -128
-17 0 -7 86 15 133 24 49 36 47 36 -5z m-4277 -27 c33 -13 45 -50 50 -156 3
-49 11 -112 18 -138 17 -63 11 -67 -108 -67 -130 0 -224 23 -198 48 4 4 59 9
123 12 68 3 117 9 117 15 0 6 -34 18 -75 28 -138 33 -181 48 -201 68 -11 11
-17 24 -14 29 9 15 83 12 156 -7 37 -9 74 -13 85 -9 19 7 19 8 0 22 -11 8 -31
14 -46 14 -33 0 -70 26 -70 50 0 21 35 50 60 50 9 0 26 11 38 25 24 28 30 29
65 16z m-840 -12 c20 -5 37 -14 37 -19 0 -9 -29 -13 -215 -31 -131 -12 -176
-10 -182 8 -11 33 273 66 360 42z m-634 -14 c-24 -24 -410 -60 -395 -37 6 10
71 26 141 35 45 6 259 8 254 2z m100 -94 c12 -8 9 -11 -12 -16 -15 -4 -35 -4
-44 0 -17 7 -16 8 2 15 27 11 37 11 54 1z m5636 -51 c11 -17 -16 -42 -73 -67
-84 -37 -126 -25 -82 22 37 39 140 69 155 45z m-5915 -50 c-8 -5 -33 -10 -55
-10 -22 0 -47 5 -55 10 -10 7 6 10 55 10 49 0 65 -3 55 -10z m1194 -89 c4 -5
-4 -39 -16 -76 l-22 -66 24 -47 c36 -68 96 -102 200 -113 90 -10 101 -15 169
-67 66 -50 179 -102 253 -114 47 -8 106 -7 236 3 l173 15 90 -143 c79 -126
101 -173 84 -173 -23 0 -82 36 -129 79 -32 29 -69 57 -84 63 -15 5 -79 14
-142 19 -244 17 -542 126 -833 302 -68 41 -156 91 -197 112 -41 20 -90 48
-108 62 -32 24 -32 26 -17 44 17 18 131 70 210 95 48 15 102 18 109 5z m4801
-2 c18 -28 -90 -91 -130 -75 -22 8 -11 22 43 57 48 30 76 36 87 18z m93 -73
c5 -23 -14 -36 -50 -36 -32 0 -36 15 -11 42 21 23 57 20 61 -6z m-354 -48
c-15 -49 -35 -87 -60 -117 -26 -32 -64 -42 -64 -17 0 27 101 156 123 156 4 0
5 -10 1 -22z m-5457 -2 c3 -3 1 -12 -6 -20 -32 -39 -346 -72 -346 -36 0 37
320 89 352 56z m1549 -21 c13 -8 36 -34 51 -56 26 -40 27 -42 8 -55 -20 -15
-135 -20 -135 -6 0 4 16 20 35 35 20 16 33 33 29 38 -3 6 -85 7 -225 3 -151
-5 -219 -4 -219 3 0 20 95 41 255 57 73 7 176 -2 201 -19z m-1967 6 c37 -23
-41 -49 -100 -33 l-34 10 35 15 c39 18 78 21 99 8z m6366 -21 c3 -5 -4 -30
-16 -56 -24 -49 -68 -84 -107 -84 -35 0 -89 28 -107 57 l-16 24 69 -7 70 -6
26 41 c19 30 33 41 51 41 13 0 26 -4 30 -10z m-2436 -61 c41 -14 39 -26 -6
-38 -74 -21 -243 -7 -243 19 0 27 185 41 249 19z m-4034 -29 c20 -5 1 -8 -60
-8 -59 0 -81 3 -65 8 31 10 86 10 125 0z m6659 -15 c36 -37 -11 -65 -107 -65
-68 0 -93 10 -84 33 14 37 161 61 191 32z m-5931 -11 c20 -4 37 -11 37 -16 0
-15 -67 -38 -113 -38 -50 0 -147 26 -147 40 0 14 159 24 223 14z m5498 -17
c-6 -8 -33 -26 -61 -41 -38 -21 -61 -26 -97 -24 -47 3 -48 3 -23 17 35 20 151
61 174 61 14 0 16 -3 7 -13z m835 -83 c185 -53 321 -121 294 -148 -8 -8 -114
-12 -349 -14 -484 -5 -671 11 -671 58 0 34 90 70 187 73 l48 2 -3 -43 c-3 -42
-3 -43 25 -37 15 3 84 34 153 69 148 76 181 80 316 40z m-4738 -6 c19 -19 14
-26 -25 -37 -46 -13 -113 -14 -132 -2 -11 7 -5 14 25 30 43 22 114 27 132 9z
m3525 -33 c-3 -13 -30 -18 -51 -10 -14 5 -14 7 -2 16 19 11 56 8 53 -6z m279
-11 c32 -9 58 -20 58 -24 0 -7 -92 -21 -160 -24 -30 -1 -35 2 -32 19 4 25 29
45 56 45 11 0 46 -7 78 -16z m-1067 -44 c19 -7 18 -9 -8 -19 -34 -13 -116 -14
-136 -2 -7 5 -10 14 -7 20 8 13 121 14 151 1z m-4511 -26 c9 -3 16 -10 16 -15
0 -10 -129 -12 -154 -3 -21 8 -20 21 2 28 20 6 113 -1 136 -10z m221 -14 c-3
-5 -24 -10 -46 -10 -21 0 -39 5 -39 10 0 6 21 10 46 10 27 0 43 -4 39 -10z
m405 -30 c-8 -5 -40 -10 -70 -10 -30 0 -62 5 -70 10 -10 7 11 10 70 10 59 0
80 -3 70 -10z"/>
<path d="M5093 10949 c-24 -12 -43 -25 -43 -30 0 -13 81 -11 110 4 14 7 25 19
25 27 0 23 -46 23 -92 -1z"/>
<path d="M4643 10366 c-148 -75 -277 -155 -249 -156 35 0 406 197 406 216 0
13 -43 -3 -157 -60z"/>
<path d="M5744 9740 c-48 -27 -111 -99 -127 -143 -8 -21 25 -57 51 -57 27 0
81 43 135 108 68 82 75 122 19 122 -15 0 -50 -13 -78 -30z"/>
<path d="M4653 9409 c-50 -24 -123 -100 -152 -158 -35 -67 -54 -159 -47 -222
3 -31 19 -94 37 -140 22 -61 29 -95 26 -123 -7 -49 8 -82 44 -96 78 -33 247
69 358 217 63 83 82 145 83 262 1 72 -3 97 -21 134 -59 122 -215 182 -328 126z
m168 -72 c127 -85 126 -303 -1 -441 -47 -51 -93 -83 -142 -96 -68 -20 -107 48
-50 88 27 20 27 22 27 131 0 91 -3 113 -17 127 -16 17 -19 17 -39 -2 -12 -10
-37 -50 -56 -89 l-35 -70 7 62 c9 90 30 152 69 208 71 99 164 132 237 82z"/>
<path d="M6316 8979 c-64 -76 -84 -169 -36 -169 20 0 91 73 115 120 24 47 17
74 -21 78 -25 2 -37 -3 -58 -29z"/>
<path d="M5074 8716 c-61 -28 -90 -62 -72 -84 27 -31 206 12 222 54 21 55 -62
71 -150 30z"/>
<path d="M5468 8689 c-28 -16 -3 -54 65 -99 62 -42 97 -50 116 -26 15 18 5 39
-41 83 -50 48 -103 64 -140 42z"/>
<path d="M5807 8691 c-81 -17 -71 -53 21 -72 67 -14 176 -8 217 12 35 17 44
43 18 54 -26 11 -212 15 -256 6z"/>
<path d="M4316 8546 c-84 -30 -144 -71 -152 -103 -11 -42 8 -43 89 -7 42 18
96 37 119 41 47 7 91 44 86 71 -5 26 -63 25 -142 -2z"/>
<path d="M5936 8431 c-8 -13 21 -35 114 -86 47 -25 99 -62 117 -81 33 -37 65
-42 71 -12 5 27 -28 87 -64 114 -62 48 -222 91 -238 65z"/>
<path d="M4414 8368 c-36 -58 463 -228 817 -278 l147 -20 134 25 c74 13 214
45 312 69 177 45 242 70 216 86 -16 10 -40 7 -220 -27 -464 -85 -715 -69
-1102 72 -219 80 -290 97 -304 73z"/>
<path d="M5000 7397 c-45 -15 -52 -49 -16 -72 28 -19 46 -12 85 29 44 47 9 69
-69 43z"/>
<path d="M5060 7040 c0 -5 16 -10 35 -10 19 0 35 5 35 10 0 6 -16 10 -35 10
-19 0 -35 -4 -35 -10z"/>
<path d="M4838 6799 c-30 -11 -43 -35 -25 -46 19 -12 106 -6 123 8 15 12 14
15 -6 31 -24 20 -51 22 -92 7z"/>
<path d="M6410 7077 c-14 -7 -25 -19 -25 -27 0 -33 141 -7 153 28 5 16 -94 16
-128 -1z"/>
<path d="M6524 6989 c-17 -5 -37 -16 -44 -24 -27 -32 77 -43 132 -14 28 15 21
36 -13 43 -36 7 -34 7 -75 -5z"/>
<path d="M3770 6216 c19 -19 131 -62 290 -114 226 -74 232 -75 450 -68 194 5
250 11 250 26 0 16 -40 22 -220 30 -203 9 -390 41 -625 105 -144 40 -167 43
-145 21z"/>
<path d="M4780 6220 c-14 -4 -39 -8 -57 -9 -17 -1 -39 -9 -48 -18 -29 -28 5
-43 100 -43 89 0 105 8 105 52 0 26 -3 28 -37 27 -21 -1 -49 -5 -63 -9z"/>
<path d="M4571 5907 c-25 -6 -46 -17 -48 -24 -13 -39 179 -69 250 -40 20 9 37
21 37 26 0 36 -158 61 -239 38z"/>
<path d="M4618 5631 c-64 -61 -61 -81 12 -81 37 0 55 5 70 20 23 23 23 23 9
73 -6 22 -16 37 -25 37 -9 0 -38 -22 -66 -49z"/>
<path d="M5455 5204 c-68 -17 -106 -55 -74 -75 33 -21 175 5 208 36 12 12 11
16 -13 25 -35 13 -95 20 -121 14z"/>
<path d="M6126 5129 c-78 -27 -176 -72 -201 -93 -19 -16 -19 -17 15 -10 65 12
290 105 290 119 0 11 -48 3 -104 -16z"/>
<path d="M4350 5078 c0 -34 25 -48 109 -59 145 -20 396 -2 353 25 -20 12 -208
36 -334 43 -109 5 -128 4 -128 -9z"/>
<path d="M6148 5003 c-31 -8 -19 -23 17 -23 36 0 47 13 19 24 -9 3 -16 5 -17
5 -1 -1 -10 -3 -19 -6z"/>
<path d="M4675 4803 c-34 -9 -38 -20 -15 -43 22 -22 27 -23 149 -16 69 4 209
11 309 16 175 7 221 16 190 36 -14 10 -600 16 -633 7z"/>
<path d="M4505 4738 c-57 -45 -73 -145 -32 -194 19 -22 34 -28 79 -32 59 -5
98 9 98 34 0 9 -9 18 -20 21 -28 7 -26 13 22 55 l43 37 -35 1 c-67 1 -80 9
-80 50 0 25 -5 40 -16 44 -24 9 -29 8 -59 -16z"/>
<path d="M4488 4316 c-97 -13 -116 -23 -99 -54 15 -28 78 -36 166 -22 114 18
178 63 115 81 -35 10 -81 9 -182 -5z"/>
<path d="M4544 3635 c-8 -21 14 -45 41 -45 27 0 49 24 41 45 -3 9 -18 15 -41
15 -23 0 -38 -6 -41 -15z"/>
<path d="M94 3551 c-32 -14 -37 -29 -14 -41 39 -21 160 -13 160 10 0 25 -107
47 -146 31z"/>
<path d="M164 3300 c-99 -7 -114 -12 -114 -40 0 -27 50 -40 159 -40 137 0 261
29 261 61 0 17 -178 28 -306 19z"/>
<path d="M703 3230 c-60 -24 -1 -60 99 -60 69 0 87 20 49 52 -25 20 -108 24
-148 8z"/>
<path d="M580 3103 c-147 -15 -335 -52 -323 -64 5 -5 40 -14 79 -20 62 -11 91
-10 220 8 82 12 169 29 193 39 40 16 42 18 25 31 -17 12 -105 15 -194 6z"/>
<path d="M1380 2993 c-209 -10 -340 -31 -340 -54 0 -16 189 -22 500 -15 179 4
347 11 374 15 49 8 73 28 55 46 -10 10 -439 16 -589 8z"/>
<path d="M2045 2840 c-259 -17 -547 -50 -592 -67 -61 -24 175 -29 567 -13 251
11 435 26 457 39 11 5 10 11 -1 26 -13 18 -28 20 -158 21 -79 1 -201 -2 -273
-6z"/>
<path d="M3830 1833 c-130 -22 -276 -85 -311 -135 -20 -28 -20 -28 -1 -28 11
0 84 23 162 50 144 51 190 60 190 38 -1 -31 -41 -58 -88 -58 -42 0 -92 -20
-92 -36 0 -34 105 -25 256 23 128 40 195 86 167 114 -28 28 -194 47 -283 32z"/>
<path d="M6037 1782 c-74 -107 -61 -187 31 -199 33 -4 46 -1 77 23 40 30 95
104 95 128 0 37 -35 28 -100 -26 -52 -43 -60 -38 -60 36 0 36 -4 67 -9 70 -5
3 -20 -11 -34 -32z"/>
<path d="M5755 1728 c-19 -47 -19 -79 1 -126 14 -33 17 -35 24 -17 12 28 12
147 0 165 -7 12 -12 7 -25 -22z"/>
<path d="M5603 1693 c-18 -7 -16 -27 5 -47 18 -15 20 -15 35 2 21 23 22 38 1
46 -18 7 -23 7 -41 -1z"/>
<path d="M4168 1670 c-21 -5 -65 -24 -99 -41 -74 -37 -178 -64 -279 -74 -41
-3 -98 -13 -126 -21 -97 -27 -74 -77 41 -89 36 -4 65 -10 65 -14 0 -3 -9 -12
-20 -19 -32 -20 -24 -47 28 -93 57 -51 132 -87 198 -95 66 -9 75 -18 68 -64
-5 -33 -3 -40 17 -53 38 -24 99 -29 200 -18 52 6 254 17 449 26 526 23 699 38
754 67 13 7 15 13 7 21 -16 16 -523 11 -811 -9 -129 -8 -296 -17 -370 -20
-128 -4 -133 -3 -102 11 50 23 193 50 470 90 368 53 520 85 530 113 6 18 -101
15 -289 -9 -357 -44 -689 -63 -703 -40 -8 12 86 45 229 81 234 59 324 94 301
118 -4 4 -40 6 -79 5 -68 -3 -134 -15 -422 -78 -66 -14 -171 -29 -233 -32
l-114 -6 4 23 c8 55 87 80 349 109 97 10 186 24 197 30 55 29 -34 81 -147 87
-42 2 -93 -1 -113 -6z m-122 -321 c11 -18 -17 -29 -73 -29 -59 0 -76 14 -36
28 38 14 100 14 109 1z"/>
<path d="M6372 1584 c-38 -26 -23 -74 23 -74 36 0 74 57 52 79 -16 16 -49 14
-75 -5z"/>
<path d="M3402 1550 c-38 -23 -64 -78 -60 -124 2 -26 8 -32 31 -34 36 -4 131
24 147 43 10 12 8 18 -11 34 -18 14 -24 30 -24 58 0 33 -3 38 -25 41 -14 1
-40 -7 -58 -18z"/>
<path d="M43 1059 c-39 -11 -47 -23 -39 -55 6 -21 12 -24 57 -24 105 0 163 57
82 79 -44 13 -57 13 -100 0z"/>
<path d="M227 863 c-18 -30 106 -147 169 -159 58 -11 88 35 53 80 -37 47 -205
107 -222 79z"/>
<path d="M3800 711 c0 -53 198 -166 320 -182 76 -11 117 -26 139 -53 7 -8 28
-20 47 -26 60 -20 117 26 83 66 -7 9 -63 41 -123 71 l-111 56 -83 -6 c-84 -5
-84 -5 -121 28 -69 62 -151 87 -151 46z"/>
<path d="M4780 413 c-43 -7 -80 -25 -80 -39 0 -8 21 -28 47 -44 134 -85 283
-94 283 -17 0 17 -9 20 -84 32 -24 4 -49 17 -65 34 -28 29 -60 40 -101 34z"/>
<path d="M5626 297 c-36 -27 9 -86 55 -72 11 4 27 18 36 32 16 24 16 26 -2 39
-24 18 -66 18 -89 1z"/>
</g>
</svg>
